<mxfile host="app.diagrams.net" modified="2020-11-26T18:03:51.852Z" agent="5.0 (Macintosh; Intel Mac OS X 10_12_6) AppleWebKit/537.36 (KHTML, like Gecko) Chrome/86.0.4240.198 Safari/537.36" etag="qZTOr8gD7DDL__9xLUgM" version="13.10.0" type="github" pages="2">
  <diagram name="Page-1" id="74e2e168-ea6b-b213-b513-2b3c1d86103e">
    <mxGraphModel dx="786" dy="467" grid="1" gridSize="10" guides="1" tooltips="1" connect="1" arrows="1" fold="1" page="1" pageScale="1" pageWidth="1100" pageHeight="850" background="#ffffff" math="0" shadow="0">
      <root>
        <mxCell id="0" />
        <mxCell id="1" parent="0" />
        <mxCell id="77e6c97f196da883-1" value="疲劳驾驶检测系统总流程" style="swimlane;html=1;childLayout=stackLayout;startSize=20;rounded=0;shadow=0;labelBackgroundColor=none;strokeWidth=1;fontFamily=Verdana;fontSize=12;align=left;" parent="1" vertex="1">
          <mxGeometry x="70" y="20" width="660" height="790" as="geometry" />
        </mxCell>
        <mxCell id="77e6c97f196da883-2" value="" style="swimlane;html=1;startSize=20;" parent="77e6c97f196da883-1" vertex="1">
          <mxGeometry y="20" width="40" height="770" as="geometry" />
        </mxCell>
        <mxCell id="77e6c97f196da883-3" value="车辆驾驶员" style="swimlane;html=1;startSize=20;" parent="77e6c97f196da883-1" vertex="1">
          <mxGeometry x="40" y="20" width="160" height="770" as="geometry" />
        </mxCell>
        <mxCell id="wbGANwPSu1z8eDDNQpr_-37" style="edgeStyle=orthogonalEdgeStyle;rounded=0;orthogonalLoop=1;jettySize=auto;html=1;exitX=0.5;exitY=1;exitDx=0;exitDy=0;entryX=0.5;entryY=0;entryDx=0;entryDy=0;fontFamily=Helvetica;fontSize=14;" parent="77e6c97f196da883-3" source="77e6c97f196da883-11" target="77e6c97f196da883-12" edge="1">
          <mxGeometry relative="1" as="geometry" />
        </mxCell>
        <mxCell id="77e6c97f196da883-11" value="启动车辆" style="rounded=1;whiteSpace=wrap;html=1;shadow=0;labelBackgroundColor=none;strokeWidth=1;fontFamily=Verdana;fontSize=12;align=center;imageHeight=24;" parent="77e6c97f196da883-3" vertex="1">
          <mxGeometry x="30" y="40" width="100" height="40" as="geometry" />
        </mxCell>
        <mxCell id="77e6c97f196da883-12" value="启动设备" style="rounded=1;whiteSpace=wrap;html=1;shadow=0;labelBackgroundColor=none;strokeWidth=1;fontFamily=Verdana;fontSize=12;align=center;imageHeight=24;" parent="77e6c97f196da883-3" vertex="1">
          <mxGeometry x="30" y="110" width="100" height="40" as="geometry" />
        </mxCell>
        <mxCell id="wbGANwPSu1z8eDDNQpr_-46" value="声音预警" style="rounded=1;whiteSpace=wrap;html=1;shadow=0;labelBackgroundColor=none;strokeWidth=1;fontFamily=Verdana;fontSize=12;align=center;imageHeight=24;" parent="77e6c97f196da883-3" vertex="1">
          <mxGeometry x="30" y="504" width="100" height="40" as="geometry" />
        </mxCell>
        <mxCell id="wbGANwPSu1z8eDDNQpr_-54" value="语音对讲" style="rounded=1;whiteSpace=wrap;html=1;shadow=0;labelBackgroundColor=none;strokeWidth=1;fontFamily=Verdana;fontSize=12;align=center;imageHeight=24;" parent="77e6c97f196da883-3" vertex="1">
          <mxGeometry x="30" y="594" width="100" height="40" as="geometry" />
        </mxCell>
        <mxCell id="77e6c97f196da883-4" value="终端设备" style="swimlane;html=1;startSize=20;" parent="77e6c97f196da883-1" vertex="1">
          <mxGeometry x="200" y="20" width="160" height="770" as="geometry" />
        </mxCell>
        <mxCell id="wbGANwPSu1z8eDDNQpr_-35" style="edgeStyle=orthogonalEdgeStyle;rounded=0;orthogonalLoop=1;jettySize=auto;html=1;entryX=0.5;entryY=0;entryDx=0;entryDy=0;fontFamily=Helvetica;fontSize=14;" parent="77e6c97f196da883-4" source="wbGANwPSu1z8eDDNQpr_-28" target="77e6c97f196da883-13" edge="1">
          <mxGeometry relative="1" as="geometry" />
        </mxCell>
        <mxCell id="wbGANwPSu1z8eDDNQpr_-28" value="捕获图像" style="rounded=1;whiteSpace=wrap;html=1;shadow=0;labelBackgroundColor=none;strokeWidth=1;fontFamily=Verdana;fontSize=12;align=center;" parent="77e6c97f196da883-4" vertex="1">
          <mxGeometry x="30" y="110" width="100" height="40" as="geometry" />
        </mxCell>
        <mxCell id="wbGANwPSu1z8eDDNQpr_-43" value="成功" style="edgeStyle=orthogonalEdgeStyle;rounded=0;orthogonalLoop=1;jettySize=auto;html=1;entryX=0.5;entryY=0;entryDx=0;entryDy=0;fontFamily=Helvetica;fontSize=12;" parent="77e6c97f196da883-4" source="77e6c97f196da883-13" target="wbGANwPSu1z8eDDNQpr_-42" edge="1">
          <mxGeometry relative="1" as="geometry" />
        </mxCell>
        <mxCell id="77e6c97f196da883-13" value="驾驶员在岗" style="rhombus;whiteSpace=wrap;html=1;rounded=0;shadow=0;labelBackgroundColor=none;strokeWidth=1;fontFamily=Verdana;fontSize=12;align=center;" parent="77e6c97f196da883-4" vertex="1">
          <mxGeometry x="40" y="225" width="80" height="40" as="geometry" />
        </mxCell>
        <mxCell id="wbGANwPSu1z8eDDNQpr_-45" value="成功" style="edgeStyle=orthogonalEdgeStyle;rounded=0;orthogonalLoop=1;jettySize=auto;html=1;entryX=0.5;entryY=0;entryDx=0;entryDy=0;fontFamily=Helvetica;fontSize=12;" parent="77e6c97f196da883-4" source="wbGANwPSu1z8eDDNQpr_-42" target="wbGANwPSu1z8eDDNQpr_-44" edge="1">
          <mxGeometry relative="1" as="geometry" />
        </mxCell>
        <mxCell id="wbGANwPSu1z8eDDNQpr_-42" value="身份认证" style="rhombus;whiteSpace=wrap;html=1;rounded=0;shadow=0;labelBackgroundColor=none;strokeWidth=1;fontFamily=Verdana;fontSize=12;align=center;" parent="77e6c97f196da883-4" vertex="1">
          <mxGeometry x="40" y="310" width="80" height="40" as="geometry" />
        </mxCell>
        <mxCell id="wbGANwPSu1z8eDDNQpr_-44" value="疲劳检测" style="rhombus;whiteSpace=wrap;html=1;rounded=0;shadow=0;labelBackgroundColor=none;strokeWidth=1;fontFamily=Verdana;fontSize=12;align=center;" parent="77e6c97f196da883-4" vertex="1">
          <mxGeometry x="40" y="400" width="80" height="40" as="geometry" />
        </mxCell>
        <mxCell id="wbGANwPSu1z8eDDNQpr_-53" value="直播" style="rounded=1;whiteSpace=wrap;html=1;shadow=0;labelBackgroundColor=none;strokeWidth=1;fontFamily=Verdana;fontSize=12;align=center;imageHeight=24;" parent="77e6c97f196da883-4" vertex="1">
          <mxGeometry x="30" y="594" width="100" height="40" as="geometry" />
        </mxCell>
        <mxCell id="77e6c97f196da883-5" value="车队安全员" style="swimlane;html=1;startSize=20;" parent="77e6c97f196da883-1" vertex="1">
          <mxGeometry x="360" y="20" width="150" height="770" as="geometry" />
        </mxCell>
        <mxCell id="77e6c97f196da883-16" value="二级预警" style="rhombus;whiteSpace=wrap;html=1;rounded=0;shadow=0;labelBackgroundColor=none;strokeWidth=1;fontFamily=Verdana;fontSize=12;align=center;" parent="77e6c97f196da883-5" vertex="1">
          <mxGeometry x="40" y="504" width="80" height="40" as="geometry" />
        </mxCell>
        <mxCell id="77e6c97f196da883-17" value="人工干预" style="rounded=1;whiteSpace=wrap;html=1;shadow=0;labelBackgroundColor=none;strokeWidth=1;fontFamily=Verdana;fontSize=12;align=center;imageHeight=24;" parent="77e6c97f196da883-5" vertex="1">
          <mxGeometry x="30" y="594" width="100" height="40" as="geometry" />
        </mxCell>
        <mxCell id="77e6c97f196da883-35" value="是" style="edgeStyle=orthogonalEdgeStyle;rounded=1;html=1;labelBackgroundColor=none;startArrow=none;startFill=0;startSize=5;endArrow=classicThin;endFill=1;endSize=5;jettySize=auto;orthogonalLoop=1;strokeWidth=1;fontFamily=Verdana;fontSize=12;" parent="77e6c97f196da883-5" source="77e6c97f196da883-16" target="77e6c97f196da883-17" edge="1">
          <mxGeometry relative="1" as="geometry" />
        </mxCell>
        <mxCell id="wbGANwPSu1z8eDDNQpr_-36" style="edgeStyle=orthogonalEdgeStyle;rounded=0;orthogonalLoop=1;jettySize=auto;html=1;entryX=0;entryY=0.5;entryDx=0;entryDy=0;fontFamily=Helvetica;fontSize=14;" parent="77e6c97f196da883-1" source="77e6c97f196da883-12" target="wbGANwPSu1z8eDDNQpr_-28" edge="1">
          <mxGeometry relative="1" as="geometry" />
        </mxCell>
        <mxCell id="wbGANwPSu1z8eDDNQpr_-50" style="edgeStyle=orthogonalEdgeStyle;rounded=0;orthogonalLoop=1;jettySize=auto;html=1;exitX=0;exitY=0.5;exitDx=0;exitDy=0;fontFamily=Helvetica;fontSize=12;" parent="77e6c97f196da883-1" source="wbGANwPSu1z8eDDNQpr_-44" target="wbGANwPSu1z8eDDNQpr_-46" edge="1">
          <mxGeometry relative="1" as="geometry" />
        </mxCell>
        <mxCell id="wbGANwPSu1z8eDDNQpr_-66" value="成功" style="edgeLabel;html=1;align=center;verticalAlign=middle;resizable=0;points=[];fontSize=12;fontFamily=Helvetica;" parent="wbGANwPSu1z8eDDNQpr_-50" vertex="1" connectable="0">
          <mxGeometry x="-0.1895" y="5" relative="1" as="geometry">
            <mxPoint as="offset" />
          </mxGeometry>
        </mxCell>
        <mxCell id="wbGANwPSu1z8eDDNQpr_-52" style="edgeStyle=orthogonalEdgeStyle;rounded=0;orthogonalLoop=1;jettySize=auto;html=1;exitX=1;exitY=0.5;exitDx=0;exitDy=0;entryX=0.5;entryY=0;entryDx=0;entryDy=0;fontFamily=Helvetica;fontSize=12;" parent="77e6c97f196da883-1" source="wbGANwPSu1z8eDDNQpr_-44" target="77e6c97f196da883-16" edge="1">
          <mxGeometry relative="1" as="geometry">
            <Array as="points">
              <mxPoint x="440" y="440" />
            </Array>
          </mxGeometry>
        </mxCell>
        <mxCell id="wbGANwPSu1z8eDDNQpr_-67" value="成功" style="edgeLabel;html=1;align=center;verticalAlign=middle;resizable=0;points=[];fontSize=12;fontFamily=Helvetica;" parent="wbGANwPSu1z8eDDNQpr_-52" vertex="1" connectable="0">
          <mxGeometry x="-0.1158" y="2" relative="1" as="geometry">
            <mxPoint as="offset" />
          </mxGeometry>
        </mxCell>
        <mxCell id="wbGANwPSu1z8eDDNQpr_-55" style="edgeStyle=orthogonalEdgeStyle;rounded=0;orthogonalLoop=1;jettySize=auto;html=1;exitX=0;exitY=0.5;exitDx=0;exitDy=0;entryX=1;entryY=0.5;entryDx=0;entryDy=0;fontFamily=Helvetica;fontSize=14;" parent="77e6c97f196da883-1" source="77e6c97f196da883-17" target="wbGANwPSu1z8eDDNQpr_-53" edge="1">
          <mxGeometry relative="1" as="geometry" />
        </mxCell>
        <mxCell id="wbGANwPSu1z8eDDNQpr_-56" style="edgeStyle=orthogonalEdgeStyle;rounded=0;orthogonalLoop=1;jettySize=auto;html=1;exitX=0;exitY=0.5;exitDx=0;exitDy=0;fontFamily=Helvetica;fontSize=14;" parent="77e6c97f196da883-1" source="wbGANwPSu1z8eDDNQpr_-53" target="wbGANwPSu1z8eDDNQpr_-54" edge="1">
          <mxGeometry relative="1" as="geometry" />
        </mxCell>
        <mxCell id="wbGANwPSu1z8eDDNQpr_-62" value="" style="swimlane;html=1;startSize=20;" parent="77e6c97f196da883-1" vertex="1">
          <mxGeometry x="510" y="20" width="150" height="770" as="geometry" />
        </mxCell>
        <mxCell id="wbGANwPSu1z8eDDNQpr_-38" value="结束" style="rounded=1;whiteSpace=wrap;html=1;shadow=0;labelBackgroundColor=none;strokeWidth=1;fontFamily=Verdana;fontSize=12;align=center;imageHeight=24;" parent="wbGANwPSu1z8eDDNQpr_-62" vertex="1">
          <mxGeometry x="28" y="692" width="100" height="40" as="geometry" />
        </mxCell>
        <mxCell id="wbGANwPSu1z8eDDNQpr_-39" style="edgeStyle=orthogonalEdgeStyle;rounded=0;orthogonalLoop=1;jettySize=auto;html=1;fontFamily=Helvetica;fontSize=12;exitX=1;exitY=0.5;exitDx=0;exitDy=0;" parent="77e6c97f196da883-1" source="77e6c97f196da883-13" target="wbGANwPSu1z8eDDNQpr_-38" edge="1">
          <mxGeometry relative="1" as="geometry">
            <Array as="points">
              <mxPoint x="588" y="265" />
            </Array>
          </mxGeometry>
        </mxCell>
        <mxCell id="wbGANwPSu1z8eDDNQpr_-48" value="失败" style="edgeLabel;html=1;align=center;verticalAlign=middle;resizable=0;points=[];fontSize=12;fontFamily=Helvetica;" parent="wbGANwPSu1z8eDDNQpr_-39" vertex="1" connectable="0">
          <mxGeometry x="-0.76" y="1" relative="1" as="geometry">
            <mxPoint as="offset" />
          </mxGeometry>
        </mxCell>
        <mxCell id="wbGANwPSu1z8eDDNQpr_-47" style="edgeStyle=orthogonalEdgeStyle;rounded=0;orthogonalLoop=1;jettySize=auto;html=1;fontFamily=Helvetica;fontSize=14;entryX=0.5;entryY=0;entryDx=0;entryDy=0;exitX=1;exitY=0.5;exitDx=0;exitDy=0;" parent="77e6c97f196da883-1" source="wbGANwPSu1z8eDDNQpr_-42" target="wbGANwPSu1z8eDDNQpr_-38" edge="1">
          <mxGeometry relative="1" as="geometry">
            <mxPoint x="320" y="260" as="targetPoint" />
            <mxPoint x="240" y="360" as="sourcePoint" />
            <Array as="points">
              <mxPoint x="588" y="350" />
            </Array>
          </mxGeometry>
        </mxCell>
        <mxCell id="wbGANwPSu1z8eDDNQpr_-49" value="失败" style="edgeLabel;html=1;align=center;verticalAlign=middle;resizable=0;points=[];fontSize=12;fontFamily=Helvetica;" parent="wbGANwPSu1z8eDDNQpr_-47" vertex="1" connectable="0">
          <mxGeometry x="-0.7321" y="1" relative="1" as="geometry">
            <mxPoint as="offset" />
          </mxGeometry>
        </mxCell>
      </root>
    </mxGraphModel>
  </diagram>
  <diagram id="yuNIk-jbxBUh5GInWQAP" name="Page-2">
    <mxGraphModel dx="786" dy="467" grid="1" gridSize="10" guides="1" tooltips="1" connect="1" arrows="1" fold="1" page="1" pageScale="1" pageWidth="827" pageHeight="1169" math="0" shadow="0">
      <root>
        <mxCell id="ip4T__bNzBumYeQjsGo0-0" />
        <mxCell id="ip4T__bNzBumYeQjsGo0-1" parent="ip4T__bNzBumYeQjsGo0-0" />
        <mxCell id="ip4T__bNzBumYeQjsGo0-3" value="" style="shape=image;verticalLabelPosition=bottom;labelBackgroundColor=#ffffff;verticalAlign=top;aspect=fixed;imageAspect=0;image=data:image/png,iVBORw0KGgoAAAANSUhEUgAAApUAAAMXCAYAAABrXq7AAAAgAElEQVR4AeydZ8gsRdq//WL6ILyvop+EBV/wgwsuuAiCiLIgBxEREeUgyopiRMWA7lHMcdWjHsPq3xzXnHPWdc0ew5pXXXXVc8w5x/pzlU+N/czpme6Zmp66u/rXMM/MdHVV3XXdv66+++7ueZbaYIMN3FJLLaWXGEgD0oA0IA1IA9KANCANjKWBmXhyKadFBERABERABERABERABMYlMJOgVFA5LkDVEwEREAEREAEREAERcCG7qaBSYhABERABERABERABERifQK1M5ddff+1+/PHH8Xvpq/nTTz9NpL3vvvuur+Xxvn7//fe+4g8//NBroPi5t3LAB8bz2WefDSjVahEQAREQAREQARHIn0BpUEkQ+dVXX/nXxx9/7NZYYw136aWXOoK4sP6XX37xdEKweckll7j58+f3iF155ZVuk002cQRcvFi++OIL9+yzz7oDDzzQ7brrru7FF190zz33nPvoo4/c/fff7x588EH/euyxx/z2ixcvdkcddZQ7/vjj3amnnuouu+yyXvuvv/66W2WVVdznn3/eW/fhhx+6fffd1x1++OHu2GOP9fWuueYad8ABB/h1tEMZ/d9yyy1+PKeccopbbbXV3GabbebHOWfOHG/DQQcd5Lbddlv3wAMPuDvvvNNvy1h32WUXd/PNN/f65MNdd93lbfnkk09mrSdYff75590dd9zhjjzySLfFFlu4e++9t2fD/vvv7z+feeaZLvCc1YC+iIAIiIAIiIAIiEBLCCwRVH777bdu++23D9fFB74/9NBD7qWXXhpYPtNwr/yRRx5xr7zySu97KCcwJCjjOwEd39dcc00fiL799tu9gJAnigj0Fi1a5B599FFH0LrCCiv4gA1bCH4JQg855BD3//7f//MBIsHijTfe6INdgjr6OPjgg90JJ5zg+ySQ23333f16Ak2CZ94JRLFjt9128wEn7RAQE1SeffbZfnsCxDCGsnfG++qrr/a2WXvttX0gSwDJ9n/729/cWWed5ce03nrr9QLvluhGZoqACIiACIiACIjALAIz8dCv91Ref/31bqONNvJBJQEcGcT33nvPvxPUkQX89NNP/TqCTzJxBE4Ef2QB99tvP/+Z76eddppbZ5113H/+8x+/DUEZC5lFArannnrKvfPOOz5oIyikfYK81157zQeVP//8s9+ejOObb77pCMZ4XXfddb1ArRjMEcRRHxsIGgkQ77nnHkfWlUzhxRdf7OtddNFF/jt2ULbxxhv7/ghosbfYJu0QDL7wwguzoJFJJYBl7HPnzvUZSMZJMLrqqqv67OQ333zj62ATQTrBKMvVV1/txxqytwTmBJVhvLM60hcREAEREAEREAERaAmBWUEll2/JyrGSy93//Oc/ffYwBFtkBsnQbbrppr3M3RlnnOEvTW+zzTZ+Wy5T8/rzn//sg8cFCxb4AJMAjvYJ4risTHBHu2QKCRqLwVzIVBK4EhwSgO6xxx7+sjOBL+0TuBLAvfvuuz4ofOKJJzzycFmcLCMBXcimcnmbS9/YSV8EobTL5w033NAHeqwjiLzpppt8X5QRAHPJnoUgEga8s9x3332+/jPPPOMvj1OPOmRHWfozs9jEJXy2Kb6UqfS49EcEREAEREAERKDFBGZim9+e/r799tt9YHn++ef7rOB2223nnnzySZ/B5H7Ck046yQdzZB65v5IglAzmEUcc4e8b3Geffdxhhx3mv5O95H5GAjMCSu7J3HzzzX1Wk3sZWU8GkewjmVEuPRM0kh1loX2CSur+6U9/8sFcuJxNwEZ9Ajy2Iajkvs5isEY5GVOCzw8++MDfD8l9lwStIQglW7rVVlv5MgJmgkYCWN65xB7a/Pe//+3t33vvvXuX3Yt98Zk6BM18JnNJVjdkVrmHlODz/fff9zZjd3iRnQ33prZYSzJdBERABERABESgwwRm4qLfgkqCNYK0EFQSFBLUEQzyIA6XlI877jiPjEwimT3KWfhO9rH48Azr1lprrd46grpwPyKB4s477+x22GEHt+eee/pgLFwmpr2QZSSwxVCCV4LaGaNnvT/++OP+kjQP+xSDSYLWYkaTDGcIKvlMRpUgmCwmGVjaJjgkg0rgyyXw1VdfvXcJnOwngS2Xq8m2Enj+4x//cFzCpz0utV9++eU+AGUM2EWb2ARbLpeX2U+WVIsIiIAIiIAIiIAItJXATHzza1DJE9Eh4Lngggt6WbawLrwXAz+ybWF92TsB2n//+99ZfAjICEYJ2shKki0kW0cwy2X3t956y1+6JgA955xz/CVjAloCM54S52EcHtbhO/1TP2T6+Ckg2sFGgkGygwSVXOpm+2JQSbaV9X/5y198oMu9jwS4vLbcckv/ImtJG+GeUIJKsp8EiPPmzfPBN4ElYyErScDKNixkZhln4BL6Z/25557r76Xkp4h4hTqzQOmLCIiACIiACIiACLSEwEy882tQ+cYbb7iHH364l8kjoOIS9tZbb+2DJ4I9KhQfXOFhHYJGHuohq8flcO6R5CltMo0EUiGTGZiwft111/WX1Mli8iL4ChlMAlHq0AZB33nnnedtoO1wHyMP1vCTRf0PuJAZZbtweTvYwBPmrMdOgs5iZpDsZzGgDIEl74ceemgw278T6MKAIHivvfbqPTzEQ0TcU8kDR+EhnJNPPtlneLmHNNwHys8RhSAzvJOJ7R/HrE71RQREQAREQAREQASME5iJa367/M2DLwR13EdJ1u3pp5/2D8OEAIiHTcoWMoAEbcUsJkFqMahkG+6d5P5LgtXii5/8IQtJ4Brq8JAP/fJEN0Eb6wkaufwc1vfbQjlBYwgqyQpynyYBK0+2Yx9ZRe6xZKGcy/kE0FyC739xWZyHjMJCW7TP/Z4Ewlze5onuEFSS4eRhHC67w44AnLbpk4XM7L/+9S9/uZ1bBRYuXOh/qzO0r3cREAEREAEREAERaCOBJYJK7qXkYRMu6YYHXLiPMgSVBHa33nqrfwiFAXP/ZHiimYCKy9Bk8/jdSAI4As3w8zr8DM+JJ57os3bhKXEuJfOZB2DI4tEXwSzZPtoioCNQpIzL2WQIi7+jyb2eZFcJ1qhDv8VMJdlOLlMTKHPJnPsmCebIWLKE+zYJ/Pgx8v4X4w1ZTbKJZCLJnHI/JWXYx/jDzx3Bjifiiz8Ej738JiWsrr32Wj9GbAosGRvBpRYREAEREAEREAERaCuBWUEl9/URpF111VX+P96QXeMyNRtdccUVPpDkh8X5TsBI0Ee2joCNIDRcwi0+jEIQVbXQL8FaCFzJ8oUlXG6mjACUgJOgkEvsBKncD0kZD/EUt+VpbezBfoLMl19+2TeJzfRFIMgSgkraJZPZ/6LtEFSS3QyBLQ8ZkbVk4QlxAmN+ziiMIbRPOYEml8IJcAkkudzPOoJwxsK64va+Uf0RAREQAREQAREQgRYRmImBfrv8TbaPIC+8c29jeEgljOvLL7/sPVjCz+YQqBUX6pKVI8NYdyHjxwMr/W1Rn/s2Q1vFvkPbxXLsLf4fbtrtfwgG+8JCOf9Kkfbpu/hiG34aqPg0e6g36H+Dk5Xl0nhxwSbs1iICIiACIiACIiACuRJYIqjMdaAalwiIgAiIgAiIgAiIQHMEFFQ2x1Yti4AIiIAIiIAIiEBnCCio7IyrNVAREAEREAEREAERaI6ADyr/7//+r/eAyUyUaeq7dfssMpNNs/+/egwP6W9yLGP80NW60p/014T2pSvpqkFd/fagTnPx6/gtM3AtIpCKgPSXirz6hYD0Jx00QUC6aoKq2kRXS1kXl3X7JKO8CUh/efvX+uikP+seaqd90lU7/WbdanSloNK6l2RfUgKafJPi73zn0l/nJdAIAOmqEaydb1RBZUIJ8HuZ4fc3J20G/34yduE3O4u/6RnbXlvrd3nynYSOYv1e/B3a2LbaWD8H/TU51wWf0kf/bwSHskHv/E5xV5ccdNVV31ket4LKhN656667/H/74aA5bDnggAN6/1Od/wB0wQUX+P/Aw3/hCS/+Hzo/8v7KK6+4Bx980N+Hde+99/r/P85/HuL/jf/zn//0ZfyPdf77EMvll1/u//c5/z2Jfy3J/2sPC/8Zif8U1L8QbB522GFL/J90/m/6Pvvsk90PvXdl8uXfr/J/7fEvS/hvUy+++KI/uSjqlB//32STTbyuwrY33XST/89V/Ico/mEC+n7ooYd8Wxy8d955Z/fqq6/67/Rx/PHH9/4tKrpBu/0L/xWLf63Kv4x99tlnffvYxav/nzL0183lew76qzPX8Z/UDj/8cP866KCDenrgP7yhtfAf24p+LZ70LliwwOuEf8hRZ6E/2PKvgwctOc91OehqkN+0Ph0BdKXL31Pkz0H2iCOO8MEaB3AOwEyGHGDD68gjj/QHZMzi/4LzbybnzJnj+L/sHHy32GILX49/LYkDKSOgY9Lddddd/boZx/rPBIys599p8m8oKQv/evKcc87xASKBK+X8B6EnnnjC/590tt1tt93ck08+6V8BE9kAbDrqqKMcgQQBLe8nnXSSt4v/IJTTAq/cF05I+Bet/CvUsPCvT4s6Kurm448/9v/ulBMRAkz+VSn/upSTEjRNELn11lv7ExbaI+O59957+/Y4waEOGvrzn//sdU8ddFdcOKATiNJv0G3Rnscff7y4ebafGXMbl1Hnuu23397/29/999/f+/yZZ57xw+ZfAPOvdfuDyvAveouaKPvMv8Mt1kVXBx54oJ/v0C3aY34sy8rnPNe1VVdt3Be6ZPPMPmh70spJ/Pfdd59j8mQiY1y77767z9ZwwN1hhx38a6uttvL/Sx0hHnLIIX47JtBtttmmd/ZOhpKMI//bvP8SzhlnnOH/Rzr1d9xxRx+MMmk+9dRTXttkIMMBmSwmQS5ZH2x6++23fbZqRhi+bz6vt956vUvhYaI94YQT3B133OEDyttvv11BZYtnDoJBsoFoZNttt3XXXnut9/0xxxzj3nrrLa89yjlhwP9Bv2iDg/bf//73nlaK2iHoLC5oE41x2wdBZQgc0OQDDzzQ25RtwkkT7V133XW+LGThzz777N62uX9g/G1cRp3rmBc5cWZOQhvhX+EOCirZPsxrnPjOmzfP1+fzo48+6rVM5rOY5STrjq7Q72uvveax0h8n+EH/RdY5z3Vt1VXRP/psj8DM/G970spN/Jw1EwyGA+7f/vY3f6AtkwcHeSY7LkO/++677p133vHfiwf1tdZaq5epJLMJryuuuKKXtWTyZMKdcbZ/D5lKLi1xeZFLj6uvvrq/LM6ky2RKlohJnjaLmQLsP+644/xlKrIK4cUlcQLUpu4TLeMzjXW56a+fGVlKDs5kwAki0RMH9c0228wffP/61796zdxzzz29qtxK8fLLL/tgD33wmRMLTjLCi/X//ve//eX02267zfFauHCh++ijj3zmkT6++eYb3yZBJZxDxh2tkyklq8Q+UNQuJ1RdWtqsv1HmOoLE8847z8+LxYz5oKCSS+TcvsMSgr9+bdx9993+asuXX37pT+aDjoJm0RaBJgFwKGM/CHNYznNdm3XVpf2/bWOd2Y8UVE7LcRzAOVgSKL733nvugw8+6B2wuWeNyZFXWMhQcrZNlpLLSdyTxmVqgkqCUgJBDsjhbJwzdMq4h4lAkOwnEyuBawj6CADCpMnlH7I+nN0TRHCPEm2+//77Pst55pln+qxVMahk4t9jjz1K76kkKMBeJuNcltwnX7RApiYcVAkEw/2TZNJZv84668zS5cYbb+zvz73mmmvcLrvs4oPQUL/4jhYJEEPWER19/vnnPqhEy+iNwJGTGnTIwZ59BP09//zz7txzz/V9o3my9gSifOYkiSCVgCAnrZXtM/Bs4zLqXEdQye0QaOaFF17oDTnMl/330IZbdzjB5VYLOHG7DrcPcSsR78xF3P6DRrhdh1svOIEqajR8JuNOv5xYhXs1c57r2qqrnjD0wSSBmf3J9qSVk/j7D+BhQiu+c4BnUmNSZqIrljExcnmcCfgf//iH4+B+8sknz8oknn766f5ATD22I7AkCCT4ZMIuXi6nnMwUmVPKuHm9GGCEvouXv6nD/XcEFGQGCAZ45zuTOgFumJRNqn5Eo2DQheXoo492ZH9YOPhyHyOaILALQSEHWbKLl156qdcdB3w+L1q0yAeGnOgQgBIQhlcI+kLGCV1zW0bQVngnYESblHN/ZliP1jgxIvDkxOrggw/ulaFLgtKcl7bqb5S5Dv8xrxAAokF0xYIWOKGGAfNdcSGo5OSCExXKt9tuO3+vZLgqw7zGVRSCzqDBYn3s4wR62D3gOc91bdVV0Yf6bI8AutKDOlP2C5dieNDhs88+8wdjDqZcWiRDyQTH+rDwnacZObDydC5n0mRqqBMO9DgxZCpDPTKVBARkgzjgkxXlqXHq8TAOlyBZuFR54YUX+qCQ9rhPkuwklze5t47LUNQN21OHifass87y9bnviXohs3D99dfPCnD9Ri3/04XJlww34+RgTuaRz2SNuNf3ueee80/0c+LAQTgEldySEe5pCwdy6hVfRV0Wg0oCRE5eCEK5fxKdoVeymGHhBAetozdOnmiXYDOcaBUvkYY6Ob4z7rYuo8x1+JkTVOY8tMB8yL2+jJ+HEfF7WXDI1ZyizkKdMCcV2TEfhts0yIpzxYiT4TvvvNPPhf11cp7r2qyrok/12RYBdKWgcoo+4eDNJMaLhyEuuugiP2lyyYUnqEMZnzlL5/I4B/WQNeIJa5xWDCj5Xpxwqbfffvv5OpythxcHZrJIbM/BnKwQl8IJQLkXkomcYJEnI0P7Tz/99BJ0mGjDAZ3ggHohEA6BQ9nkv0RDLVkBr5wX9EKmmnFyPxk/10OmGR+S5WE9L4K8sHDZmQMyQR737JIJ51IjASmBKFlxMknF2ybQBgd/Dvq0zf28BKl8X3vttf0ly9A+75RzEsTDPOw39MfDafRNu0GDxTo5fm6r/kad65hXuGzNSTR+5yek+GUMfM3tEHB4+OGHZ7mYExLmH8q4PYJfEEDLIdM5a2Pn3A033NDTM3X6X/2aynmuY+xaRGDSBGb2Kdviykn8THZkX0KgxzvjK65jkuRetvBE9oyT/O+phadfySYyiRIQcikxnKnzlCz3ToafJyq+c+mczCLbM3mSEaBtbOASJ4Er6zngE1RiE0Fj/0IAG36/kkumTOJkP8lgcfbPRKygsp+a7e9ojcuBnBzwFDYPMHBPGpfBOchzsObSc1i4TxINoB8uV+JzHuriZIYTFm656D/BQJtByzxRTjAbLl0SRIT7OEMfBJVoEL3SPnXJnvMAGftIfwAQ6uX2zrjbuIwy1zFfFO91RA/4n7Fz7ywLvyfJ+v57Kyl7/fXX/YlJ0BfzUjHrXcaPEydOaor3sPdvl/Nc11Zd9ftI320RmNkHbU9aOYs/3HdUlhFEKkyMHHzJ/JCxfPPNN/1lQ+4j42eBmExDBoiJmUwnB/vii+wjAQK/RUlWiSAwPP3Nb7MRSPBi/dVXX+0vD4XJmXfuoyO4xFb65XI6P6zOAZ5y+gyXJ7lMRaDLZa9clpz1h4/QAPeehYwP72iKy99BB4ceeqjXAFoMmqWMoI8TEoJIdEYgQVCJXslsFu/FJRtPHQ74XGbkoS6+h3t4OUki2AxLyFQS0HIyRaaSy5QEvOhNQWUg1Y73oJtBcx0nDtxTyQkLJzDokHu00RwLcyFBJYEe8xBXWjjh4d5dNIWWmH+4zSdomUxn+EcPXPrmChAvLoFzpQhNofXw02iUhZ+5yn2ug5cWEZg0AXSly9+TpjpCe5wlMwEWs0Bl1ZksCSIJCsODPGwXgjkuow9buGw042x/Cbx4j2T4yRgujXOgZjsuXZI5IvPIRM46fs8tbMt3bOIAHxbK+R1CysIDH6Gsze+MJ+eFgzYPv+A7LjlyMA0LASfa5LI4HELQx0kJJzThgI8OOYDjd+6LIwPE9mTHw8KlR+7VDfdvop/wg+dkRMmOsy+EIIBfJqANtqN9Alcy8uGH0Aleu7Dkor+quQ4fc2WFhd895YSEQLS4oEU0gEbRG2x4cbUFfYUrJOiWB8go455xlpD5DHVCveJ3PqNfltznOsaqRQQmTWBmf7ItrtzFz0+4lF3SKTqbgI1L1wR63F8UFr4Pu3wTtuM9ZCSL68LnYhtll43COi5xk6nsn+xDO7yTQQg/XFxc39bPueuvrl+4XWLQQll/dhrNFAPUYt2ihovreYAtLNTnIbGyhQwVry4sOelv2FzH/ePFk90q33L5Gh0Nm4uYV8OJT1V7/eW5z3U56arfd/qejgC6UqYyHX/13AICmnxb4KSMTZT+MnZuwqFJVwnhZ9y1gsqMnauhTYaAJt/JcFQr4xGQ/sbjplrDCUhXw/modDwCCirH46ZaHSKgybdDzjY4VOnPoFMyMEm6ysCJBofgg8r/+Z//6d3w7FeU/H5XyvX/+7//a9q+lGzU95K/NTdpJtJf84wn7bOc2pP+pL8m9CxdSVdN6GomntSDOgYDfplkhAA7nhYRSEVA+ktFPu9+pau8/ZtqdDOBqu2DpsSfSh7qFwLSn3SQkoD0l5J+vn1LV/n6NuXI0JWe/k7pAfVtnoAmX/MuytpA6S9r9yYbnHSVDH3WHSuozNq9GtwkCGjynQRFtTEuAelvXHKqN4yAdDWMjsrGJaCgclxyqtcZApp8O+NqkwOV/ky6pfVGSVetd6HJASioNOkWGWWJgCZfS97oni3SX/d8Po0RS1fToNy9PhRUds/nGvGIBDT5jghMm0+UgPQ3UZxqbIaAdCUpNEFAQWUTVNVmVgQ0+WblztYNRvprnctaYbB01Qo3tc5IBZWtc5kMnjYBTb7TJq7+igSkvyINfZ4UAelqUiTVTpGAgsoiDX0WgRICmnxLoGjV1AhIf1ND3amOpKtOuXtqg1VQOTXU6qitBDT5ttVzedgt/eXhR2ujkK6seSQPexRU5uFHjaJBApp8G4SrpisJSH+ViLTBGASkqzGgqUolAQWVlYi0QdcJaPLtugLSjl/6S8s/196lq1w9m3ZcCirT8lfvLSCgybcFTsrYROkvY+cmHJp0lRB+xl0rqMzYuRraZAho8p0MR7UyHgHpbzxuqjWcgHQ1nI9KxyOgoHI8bqrVIQKafDvkbINDlf4MOiUDk6SrDJxocAgKKg06RSbZIqDJ15Y/umaN9Nc1j09nvNLVdDh3rRcFlV3zuMY7MgFNviMjU4UJEpD+JghTTfUISFc9FPowQQIKKicIU03lSUCTb55+bcuopL+2eKpddkpX7fJXW6xVUFnTU7fccovbfPPN3corr+xmoOl9qaUaYwBneMM99aLJN7UHut2/9Ndt/zc1eumqKbLdbncmPlrKNIXU4t9pp53c73//e3fuuee6xYsXm2aVi3Fwhjfc4Z9ySa2/lGNX3+kJSH/pfZCjBdJVjl5NPyZ0tZR1caW0j4Bm7ty56T3VYQvgnzKwTKm/DrtdQ58hIP1JCk0QkK6aoKo20ZWCygE64NIrmTIt6Qngh1SXwjX5pvd/ly2Q/rrs/ebGLl01x7bLLSuoHOJ97unjEqyW9ATwA/5IsWjyTUFdfQYC0l8gofdJEpCuJklTbQUCCioDiZJ3HhbRPZQlYBKswg/4I8WiyTcFdfUZCEh/gYTeJ0lAupokTbUVCCioDCRK3rXTlUBJuCqVP1L1mxC1ujZEQPoz5IyMTJGuMnKmoaGgK91TOcAh2ukGgEm0OpU/UvWbCLO6NUZA+jPmkEzMka4ycaSxYaArBZUDnKKdbgCYRKtT+SNVv4kwq1tjBKQ/Yw7JxBzpKhNHGhsGulJQOcAp2ukGgEm0OpU/UvWbCLO6NUZA+jPmkEzMka4ycaSxYaArBZUDnKKdbgCYRKtT+SNVv4kwq1tjBKQ/Yw7JxBzpKhNHGhsGulJQOcAp2ukGgEm0OpU/UvWbCLO6NUZA+jPmkEzMka4ycaSxYaArBZUDnKKdbgCYRKtT+SNVv4kwq1tjBKQ/Yw7JxBzpKhNHGhsGulJQOcAp2ukGgEm0OpU/UvWbCLO6NUZA+jPmkEzMka4ycaSxYaArBZUDnJJyp/vkk0/ct99+O8Cywat/+ukn99133w3ewDn3/fff12r7q6++GtrOtAtT+SNVv9Pmq/5sEpD+bPql7VZJV233oE370ZWCygG+SbnTLViwwB133HGllhE4vvbaa+7VV1/tvT799FO/7XPPPecOPfTQ0nph5ZZbbunuueee8LX0/YcffnCrrbaaD0B/+eUXd8MNN7hrrrnG3XTTTe7aa6/175dddplbtGhRaf0mVqbyR6p+m2CoNttHQPprn8/aYLF01QYvtc9GdKWgcoDfprnTkZUk2FtrrbX8a8Yxbs011/TfV111VXf55Zd7S3/88Ue38cYb98rY9sILL/RlBJsnnnjirBGx/fnnn+/OPvtsvx3bH3300f77WWed5cLrb3/7myM7+cEHH/g22O7iiy/2r+OPP94dccQRbpVVVnF77rmnW3vttd1RRx3l3njjjVl9NfkFe1IsqfpNMVb1aY+A9GfPJzlYJF3l4EV7Y0BXCioH+GWaOx3BHIHaf/7zH5+FfPPNNx0vspG833bbbUsEi0WzySYS+G299da+ncMPP9wddNBBvi0uhxNUXnrppTjbHXjgge6KK65wZBoJRsOLoPPrr792H374oVtjjTXczjvv7LdhOxYypNttt50PJMmkTnuZpj+KY0vVb9EGfe4uAemvu75vcuTSVZN0u9s2ulJQOcD/09zpCCrnzJnjM4UEdnwPL7KYjz32mPvrX//as5T7IslAhhfb3nrrre7000/3gd/dd9/tM5mPP/54r85LL73kL2lzaZvAkUvagxaykRdddJG78cYb/SbHHHNML4NKwAmbLbbYwn355ZeDmpj4+mn6o2h8qn6LNuhzdwlIf931fZMjl66apNvdtnOPG8wAACAASURBVNGVgsoB/p/mTkfgyKXuGYeUvpNJZCEY7N+Oy9K0wT2PJ5xwgt9u7ty5LgSVXNJmm4cfftiXPfXUU+6QQw7xn0Ng6r845wPO1Vdf3T3wwAO9QHb77bd3d9xxhyMDyr2V2LDeeuu5jz/+OFRr/H2a/igOJlW/RRv0ubsEpL/u+r7JkUtXTdLtbtvoSkHlAP9Pc6d76623/CVnLjFXLWQpP//8c0fgR73Fixf3nvjmEncIPrlHMwSVZYHojPN7AWrYloxmsWyzzTZzu+++u7v//vvdOeec4wPKRx991O2///4KKqucpXIRiCQwzXko0lRVbxEB6apFzmqRqTOxQ5oHIOpySiX+afZLILfJJpu4hx56yD8Iw+Xn/heXt8Py+uuvu0033dS9/fbbjod4vvnmG1907LHHukceecR/Jrs4KJP47LPP9rKQoc3+97AN92vutttu7rrrrvPZzh133NFtvvnm/jI7P300rWWa/iiOKVW/RRv0ubsEpL/u+r7JkUtXTdLtbtvoSpnKAf6f5k5HAHfaaae5q666ys2fP9+RCXzwwQf9i8/nnXferAd1TjnlFL8tphPk8TDNzz//7B/SeeGFF/yIQlBJ4EdAyOXr8OLeS+6J5KeFwrqbb77ZZ0DJlr7//vv+MjcMyFLus88+/sEd7utcYYUV3F577eWzmWRMp7VM0x/FMaXqt2iDPneXgPTXXd83OXLpqkm63W0bXSmoHOD/ae50BxxwgLv++ut9oMj9jv0LT4CHB3UI5PgNSYJPAj7sXHfddd3tt9/u73MkuGQJQSXZTIJCLlfzOuyww9wuu+ziNtxwQ3+PZFjPNq+88oq75JJLfJv8vBFtvPPOO/6dy+38LuW2227rCFTJkCpT2e8pfReByRKY5jw0WcvVmmUC0pVl77TXNnSloHKA/6a10xGYkf3jCW4eguGngMgs8pkXPzbO09fhZ3y4VM72f/nLX/zDNF988YU78sgjfSAYHsSpCvrKfs8yYAj3dfJzRuE3LwkuediHH1kPl9d5EGjQ5fXQ1iTfp+WPfptT9dtvh753k4D0102/Nz1q6appwt1sH10pqBzg+2ntdGQo9913X28FvyfJ/YpcCj/11FP9i89kFvnB8kEL91tutdVW/rckyVpiO/9Zh/shyxb+8w7B67CFbQ4++GC/yUYbbdQLIPnBc9onW6qfFBpGUGUiEE9gWvNQvKVqoU0EpKs2eas9tqIrBZUD/DXNnY6f9WHhNyr5Hcn+hfJhWUGyi6ENPtf5/9/D2qN/njL/7LPPvCn9905Wtd9v/yS+T9MfRXtT9Vu0QZ+7S0D6667vmxy5dNUk3e62ja4UVA7wv3a6AWASrU7lj1T9JsKsbo0RkP6MOSQTc6SrTBxpbBjoSkHlAKdopxsAJtHqVP5I1W8izOrWGAHpz5hDMjFHusrEkcaGga4UVA5wina6AWASrU7lj1T9JsKsbo0RkP6MOSQTc6SrTBxpbBjoSkHlAKdopxsAJtHqVP5I1W8izOrWGAHpz5hDMjFHusrEkcaGga4UVA5wina6AWASrU7lj1T9JsKsbo0RkP6MOSQTc6SrTBxpbBjoSkHlAKdopxsAJtHqVP5I1W8izOrWGAHpz5hDMjFHusrEkcaGga4UVA5wina6AWASrU7lj1T9JsKsbo0RkP6MOSQTc6SrTBxpbBjoSkHlAKdopxsAJtHqVP5I1W8izOrWGAHpz5hDMjFHusrEkcaGga4UVA5wysorr+wWL148oFSrp0kAP+CPFIsm3xTU1WcgIP0FEnqfJAHpapI01VYgoKAykCh5598lnnvuuSUlWjVtAvgBf6RYNPmmoK4+AwHpL5DQ+yQJSFeTpKm2AgEFlYFEyfstt9zifv/735eUaNW0CeAH/JFi0eSbgrr6DASkv0BC75MkIF1NkqbaCgQUVAYSA9532mknN3fu3AGlWj0NAvDHD6kWTb6pyKtfCEh/0kETBKSrJqiqTQWVNTRAQEOmjEuwuseyBrAJbAJneMM9ZUDJUDT5TsChamJsAtLf2OhUcQgB6WoIHBWNTUBBZU10XHrlnj4eFpmBpvdfn/JqhAOc4Z3qkndRFpp8izT0edoEpL9pE+9Gf9JVN/w87VHOxEdLTbvfkfqT+EfCtcTG4rcEkpFWiN9IuLTxhAlIfxMGquY8AelKQmiCALrSTwo1QdZQm5o84pwhfnH8VDuOgPQXx0+1ywlIV+VctDaOALpSUBnH0HxtTR5xLhK/OH6qHUdA+ovjp9rlBKSrci5aG0cAXSmojGNovrYmjzgXiV8cP9WOIyD9xfFT7XIC0lU5F62NI4CuFFTGMTRfW5NHnIvEL46fascRkP7i+Kl2OQHpqpyL1sYRQFcKKuMYmq+tySPOReIXx0+14whIf3H8VLucgHRVzkVr4wigKwWVcQzN19bkEeci8Yvjp9pxBKS/OH6qXU5AuirnorVxBNCVgso4huZra/KIc5H4xfFT7TgC0l8cP9UuJyBdlXPR2jgC6EpBZRxD87U1ecS5SPzi+Kl2HAHpL46fapcTkK7KuWhtHAF0paAyjqH52po84lwkfnH8VDuOgPQXx0+1ywlIV+VctDaOALpSUBnH0HxtTR5xLhK/OH6qHUdA+ovjp9rlBKSrci5aG0cAXSmojGNovrYmjzgXiV8cP9WOIyD9xfFT7XIC0lU5F62NI4CuFFTGMTRfW5NHnIvEL46fascRkP7i+Kl2OQHpqpyL1sYRQFcKKuMYmq+tySPOReIXx0+14whIf3H8VLucgHRVzkVr4wigKwWVcQzN19bkEeci8Yvjp9pxBKS/OH6qXU5AuirnorVxBNCVgso4huZra/KIc5H4xfFT7TgC0l8cP9UuJyBdlXPR2jgC6EpBZRxD87U1ecS5SPzi+Kl2HAHpL46fapcTkK7KuWhtHAF0paAyjqH52po84lwkfnH8VDuOgPQXx0+1ywlIV+VctDaOALpSUBnH0HxtTR5xLhK/OH6qHUdA+ovjp9rlBKSrci5aG0cAXSmojGNovrYmjzgXiV8cP9WOIyD9xfFT7XIC0lU5F62NI4CuFFTGMTRfW5NHnIvEL46fascRkP7i+Kl2OQHpqpyL1sYRQFcKKuMYmqs9f/58t9xyy7kFCxZ428LkwXfWU66lPoHAr34NbSkCkyMg/U2OpVr6jYB09RsLfZocAXSloHJyPE209MUXX7ill17aLb/88m6llVbCwW7FFVf031lPuZb6BDT51melLSdPQPqbPFO16PxxQRxEYNIEFFROmqiR9ubNm+eWWWYZP3HMONl/Z72W0QjooD4aL209WQLS32R5qrVfCUhXUkITBGbijaWaaHtibUr8o6MkG7nsssvOCir5rizl6Cylv9GZqcbkCEh/k2Opln4jIF39xkKfJkcAXeny9+R4mmqpmK0ka6ks5Xju0eQ7HjfVmgwB6W8yHNXKbALS1Wwe+jYZAgoqJ8PRZCvFbKWylOO7SJPv+OxUM56A9BfPUC0sSUC6WpKJ1sQTUFAZz9B0C2QneThHWcrx3aTJd3x2qhlPQPqLZ6gWliQgXS3JRGviCSiojGdougWylZtvvrnupYzwkibfCHiqGk1A+otGqAZKCEhXJVC0KpqAgsqaCG+55RYfnK288sqzHn6ZAah1v96cOzEOcCYYhnvqxcLkK/35m78npq+q/Vb6S73Xqf+mCViY15oeo9qfPoGZuVVPfw9Dv9NOO7nf//737txzz3WLFy8etqnKJkQAzvCGO/xTLqknX+lv+t6X/qbPXD1Ol0DqeW26o1Vv0yKgoLKCNAf0uXPnVmyl4iYJwD9lYJly8pX+mlRWvba7rL96hLRVGwmknNfayEs21yOgoHIIJy45kinTkp4Afkh1KTzV5Cv9pdddsKCL+gtj13ueBFLNa3nS1KgCAQWVgUTJO/f0cQlWS3oC+AF/pFhSTb7SXwpvl/fZRf2Vk9DaXAikmtdy4adxlBNQUFnOxa/lZn3dQzkE0BSL8AP+SLGkmnylvxTeLu+zi/orJ6G1uRBINa/lwk/jKCegoLKci1+rnW4InARFqfzRtX4TuLYVXUoHrXCTjKxJIJWea5qnzVpKAF3p3zQOcJ52ugFgEq1O5Y+u9ZvIvea7lQ7Mu0gGjkAglZ5HMFGbtpAAulJQOcBx2ukGgEm0OpU/utZvIvea71Y6MO8iGTgCgVR6HsFEbdpCAuhKQeUAx2mnGwAm0epU/uhav4nca75b6cC8i2TgCARS6XkEE7VpCwmgKwWVAxynnW4AmESrU/mja/0mcq/5bqUD8y6SgSMQSKXnEUzUpi0kgK4UVA5wnHa6AWASrU7lj671m8i95ruVDsy7SAaOQCCVnkcwUZu2kAC6UlA5wHHa6QaASbQ6lT+61m8i95rvVjow7yIZOAKBVHoewURt2kIC6EpB5QDHaacbACbR6lT+6Fq/idxrvlvpwLyLZOAIBFLpeQQTtWkLCaArBZUDHJdyp/vkk0/ct99+O8Cywat/+ukn99133w3eYIySDz74wP34449j1JxslVT+6Eq/33///RIOYx2+Lytj46+//nqWNvj+5ZdfLtHOOCvQclF3n3322TjNTKxOV3QwMWBqyDSBVHo2DUXGRRNAVwoqB2BMudMtWLDAHXfccaWWcbB97bXX3Kuvvtp7ffrpp37b5557zh166KFL1LvkkkvcxRdf3FvPfwg58MAD3f777+9fZ511lvvll1965eEDfcDhtttuc//973/dG2+84d5880330UcfhU2m9p7KH13oF99vscUWjhOI4nLhhRe6p556yh155JHuhhtu8EUEmO+9955DcyeeeKLbfffd/efwfd999/Xf33//fR8UEhied9557tRTT3Xz5893Z555pkNvxx9/vF/Hel5nn332rBOiu+66y+2www6+zyuvvNLr8IEHHnDPP/+8e/fdd4tmTuVzF3QwFZDqxASBVHo2MXgZ0RgBdKWgcgDeae50ZCW33HJLt9Zaa/nXjGPcmmuu6b+vuuqq7vLLL/eWcpDeeOONe2Vsy8GfhWCTA33/smjRIrfGGmv4gzdlBIvrrLOOu+eee9y1117r1ltvPUewWlxef/11t8oqq7g///nPbuedd/b2zZ071x/cBwW8xfqT/jxNfxRtb6pfAqwvvvii2NWsz031O6uTwpftt9/eZ8cfeught+OOO/qTjQ022MDNmTPHbbPNNt7vN910k3vllVf8Z+wb9EK3lD355JO+TXR0wQUXuHvvvdcddthhXr+PPPKI/846NLjCCis4MvQsBLnsD/fff7+77rrrHPq/7LLL3FFHHeXbveaaawqWT+fjtP0RRpWq39C/3vMkIF3l6dfUo0JXCioHeGGaO91XX33l1l57bfef//zHB4ZkA3kR/PFOprAsWAymcxAm87P11lv7dg4//HB30EEH+bbCNp9//rk755xz/Nerr77aZ4348sMPP/gDeDFTefvtt/uDN4Hnbrvt5jNOoY91113XX/YM7U7rfZr+KI6pqX6XW245t/TSS7t58+aVBpdN9VscG5/RGEEf/RHYXXHFFe7ZZ591L774otcQweBLL700K0OIZlgIQAmOw0J28bTTTnOcxISFE6bVV1/dB5doiACVfvbYYw9/skLQ+PPPP/ttQlD59ttve5u22morbxf2oWn0jZ2bbrqp75d601qm5Y/+8aTqt98Ofc+LgHSVlz+tjAZdKagc4I1p7nQElWSEeOe+NN7Di4PyY4895v7617/2LA33upG15MW2t956qzv99NPddttt5+6++26fyXz88ccdGUcykg8++KDPALGOsb388su+Pepy0OayOUEtB/6TTjrJcWBnIZidEYojU9mf0ewZ1fCHafqjOJSm+uUWBwLLZZZZxi277LJLBJdN9VscG5/RG9lHArVHH33U6yLcGsEJxOabb+6zlgcccIDXGXUICPfee293xhlnOAK/cEJCxhwdUodL3Czolyw5OqQPxkXgSaCK7shmEqQSeIagkkAbrWEbWXQC3BdeeMFvTzYenZJFnaYWp+UPD63wJ1W/BRP0MUMC0lWGTjUwJHSloHKAI6a503HgDZcMZ5zSC+TCd+45Y+HetrAuvHNwpg0uT55wwgl+Ow7KBJBcQuS+N7YhW8k9bWQiWUJQyr1qXF4nw8SBmoM5B/Gjjz7a1yPrSbu0wX1uBA4ECQSk01oYa4qlyX5XXHHFni/7g8sm+y3jyOVv/Pn00097vXBSwb2UXHYmW07W+uOPP/ZV0RFa4LL0hx9+6HXFAzqc1HBCwz27BInffPNNL6gkcCWTSVtBt9x/yVIMKjmBopwAlGAVuzbbbDPfPxlO7v3kBIzL48pUlnlS60SgmsC055dqi7RFDgRm5vY0B+u6AFOJf5r9vvXWWz6bUyfzQpaSgzoHbepxAA9PfF966aX+gQfYctAlqAwL98nxMAUP28w4ftZ7uDROEBrKuSRPEMslUjJE9913n9t111175TfeeGNovvH3YFPu71wSJ9PHOKe1oJ/QJ/ctbrLJJj7TSADH5WpORMg2kknk0ji27bLLLm611VbzD/egk36/EHCyfThh4mEbsotsxz3BZCg52eH7IYcc4oNUticoZVsylASNBKOhfTTPQ2Jk2dEhJ0XTWrAzxZKq3xRjVZ/TIyBdTY91l3pCV8pUDvD4NHc6LgVyIOcetT333LP0RXYwLOFSItkkDt5khFiOPfZYxwMQLGR4QmYpZHzC91tuucUf4AlQOej/6U9/8tlHX3HmQQkO2gQYPJlLMEBmigd0uHcTW6eZJcKuafojcGi635VWWsmPi7GlylSGzDdZQG6RIENNlvuZZ55xXPImQ04AyKVwgj5OaNAruiHYI7PJgsY4kUF34XI469mOYJA677zzjm+D9sk2ctKDJjlpYRvaZ+E7GiOziV1/+9vffBYUTmTPCWbJnNc5CfMNTuBPjvqbABY10VICqfTcUlwyuyYBdKWgcgCsae50ZH+4z+yqq67yDyBwbxsHeF585idZig/qnHLKKX5bTCcDySVKgjwO8gQFLGVBJQEBL7YlSHj44Yf9E7gc0PuzPtybyWVxDvAEklyq5DOBQNnT4gMwTmz1NP1RNLqpfrmncvnll18imAx9N9VvaD+8E8jxQi9c/iYjvdFGG/lbJLh3cr/99vOfuT0jBH1kDwnssJFbLlj4HUnWEQSSQQ9LCCpD22iXeyQ5gQq3YYRtiu1zIsPT8ZxM8ZmsJvtAuOzOTxZNc5mWP/rHlKrffjv0PS8C0lVe/rQyGnSloHKAN6a505ERuv76632gyO8C9i/chxYe1CEo5ODNU7fh8iEBIgfocMmQ+sWgku88xX3wwQf7e9X4XrwM/u9//7u/S395kcuS4dIn97WRtQyZymlmiTBumv4owmiqXytPf4exohduj+DEgfsnuZViww039E+Ac9ISLn+THYcJ2Uue3Oa+SxYervn73//uL48TBAZ9hICRoJL2b775Zn/pnOAT/ZLBZNtippKglUwl91dyDy8nN2Th6ZeTHQLN8BuWwf6m35vSQZXdqfqtskvl7SYgXbXbf1atR1cKKgd4Z1o7HdkZDrAcdPn9PR6K4WDNZ178ht8xxxzjyGyxcBBm+7/85S/+YEs2hwM79pJ5ZKHNcE8b38lCEngSjBJMLly40AcJBA08EEEQES5j+gac8wdtfkOQ/o444gh/kA8ZJuqEoCFs3/T7tPzRP46m+rX0O5XcU8kJCdlG/B2y4gSWTzzxhEfCpe1w+0RgRNaR+2rvuOMOry1uwwiXwTlRIiNOUElAyjacMJGV58W9u9tuu62/xYKMPBnIYqYSe3gIiCw9PuByNxlQbtUIeuZEbFpLUzqosj9Vv1V2qbzdBKSrdvvPqvXoSkHlAO9Ma6fjwBiegj3//PP9AxNcCg//aYTPPBTBvWSDFjI3/LQLgR7BI7bzE0Hh3jYOwtwbR+Aa7o/kvspQzu9gUif8DAz9EESQ3eT3AcO9lHzmv/Do8vcgT0xu/bT0R1aQvjjhICjkP9aQoWbhJ4LQJ7dVUB5+rD08oU0gGB7sCrddUI+MJIEkukJz1OUe3fAfnPbZZx//GT3x4j5iTpRCUMnJCzolG0odHs4hqMROTrBYODnC1mkt0/JH/3hS9dtvh77nRUC6ysufVkaDrhRUDvDGNHe6cD8jP+UTfli6aBbl/VmiYjnBZGiDz+Fp8OI24XMIDML38N5fb9B2bB8O/qHuNN6n6Y/ieLrQL3rB/yy8k10Mn9EVugz68gXO+Xtzg87CeygLdcP3YdoN26CpcJKDDf3/QxwbUv7/7y7oIPhC7/kTSKXn/Ml2e4ToSkHlAA1opxsAJtHqVP7oWr+J3Gu+W+nAvItk4AgEUul5BBO1aQsJoCsFlQMcp51uAJhEq1P5o2v9JnKv+W6lA/MukoEjEEil5xFM1KYtJICuFFQOcJx2ugFgEq1O5Y+u9ZvIvea7lQ7Mu0gGjkAglZ5HMFGbtpAAulJQOcBx2ukGgEm0OpU/utZvIvea71Y6MO8iGTgCgVR6HsFEbdpCAuhKQeUAx2mnGwAm0epU/uhav4nca75b6cC8i2TgCARS6XkEE7VpCwmgKwWVAxynnW4AmESrU/mja/0mcq/5bqUD8y6SgSMQSKXnEUzUpi0kgK4UVA5wnHa6AWASrU7lj671m8i95ruVDsy7SAaOQCCVnkcwUZu2kAC6UlA5wHHa6QaASbQ6lT+61m8i95rvVjow7yIZOAKBVHoewURt2kIC6EpB5QDHrbzyym7x4sUDSrV6mgTwA/5IsaSafKW/FN4u77OL+isnobW5EEg1r+XCT+MoJ6CgspyLX7v55pu7c889d8gWKpoWAfyAP1IsqSZf6S+Ft8v77KL+yklobS4EUs1rufDTOMoJKKgs5+LX8r+xf//73w/ZQkXTIoAf8EeKJdXkK/2l8HZ5n13UXzkJrc2FQKp5LRd+Gkc5AQWV5Vx6a3faaSc3d+7c3nd9mD4B+OOHVEvKyVf6S+X13/rtsv5+o6BPuRFIOa/lxlLj+Y2AgsrfWAz8xIGdTAWXwHSP5UBMEy2AM7zhnjKgZFCpJ1/pb6LSqtWY9FcLkzZqMYHU81qL0cn0IQQUVA6BUyziUiT3uPHwxAw0vf/6lFcjHOAM71SXvIu+tzD5Sn/+icJGtFa2P0t/xT1An3MkYGFey5Fr18c0M58uZZqDxG/aPdkbJ/3FuVj8xC+OgGo3QUD7ZRNU1Sa60k8KSQciMISAJt8hcGoUiV8NSEM2Eb8hcFQ0NgHpamx0qjiEALpSUDkEkIpEQJNvnAbET/ziCKh2EwS0XzZBVW0qqJQGRKCCgCbfCkAVxeJXAaiiWPwqAKl4LALS1VjYVKmCALpSprICkoq7TUCTb5z/xU/84giodhMEtF82QVVtKqiUBkSggoAm3wpAFcXiVwGoolj8KgCpeCwC0tVY2FSpggC6UqayApKKu01Ak2+c/8VP/OIIqHYTBLRfNkFVbSqolAZEoIKAJt8KQBXF4lcBqKJY/CoAqXgsAtLVWNhUqYIAulKmsgKSirtNQJNvnP/FT/ziCKh2EwS0XzZBVW0qqJQGRKCCgCbfCkAVxeJXAaiiWPwqAKl4LALS1VjYVKmCALpSprICkoq7TUCTb5z/xU/84giodhMEtF82QVVtKqiUBkSggoAm3wpAFcXiVwGoolj8KgCpeCwC0tVY2FSpggC6UqayApKKu01Ak2+c/8VP/OIIqHYTBLRfNkFVbSqolAZEoIKAJt8KQBXF4lcBqKJY/CoAqXgsAtLVWNhUqYIAulKmsgKSirtNQJNvnP/FT/ziCKh2EwS0XzZBVW0qqJQGRKCCgCbfCkAVxeJXAaiiWPwqAKl4LALS1VjYVKmCALpSprICkoq7TUCTb5z/xU/84giodhMEtF82QVVtKqiUBkSggoAm3wpAFcXiVwGoolj8KgCpeCwC0tVY2FSpggC6UqayApKKu01Ak2+c/8VP/OIIqHYTBLRfNkFVbSqolAZEoIKAJt8KQBXF4lcBqKJY/CoAqXgsAtLVWNhUqYIAulKmsgKSirtNQJNvnP/FT/ziCKh2EwS0XzZBVW0qqJQGRKCCgCbfCkAVxeJXAaiiWPwqAKl4LALS1VjYVKmCALpSprICkoq7TUCTb5z/xU/84giodhMEtF82QVVtKqiUBkSggoAm3wpAFcXiVwGoolj8KgCpeCwC0tVY2FSpggC6UqayApKKu01Ak2+c/8VP/OIIqHYTBLRfNkFVbSqolAZEoIKAJt8KQBXF4lcBqKJY/CoAqXgsAtLVWNhUqYIAulKmsgKSirtNQJNvnP/FT/ziCKh2EwS0XzZBVW0qqJQGRKCCgCbfCkAVxeJXAaiiWPwqAKl4LALS1VjYVKmCALpSprICkoq7TUCTb5z/xU/84giodhMEtF82QVVtKqiUBkSggoAm3wpAFcXiVwGoolj8KgCpeCwC0tVY2FSpggC6UqayApKKu01Ak2+c/8VP/OIIqHYTBLRfNkFVbSqolAZEoIKAJt8KQBXF4lcBqKJY/CoAqXgsAtLVWNhUqYIAulKmsgKSirtNQJNvnP/FT/ziCKh2EwS0XzZBVW0qqJQGRKCCgCbfCkAVxeJXAaiiWPwqAKl4LALS1VjYVKmCALpSprICkoq7TUCTb5z/xU/84giodhMEtF82QVVtKqiUBkSggoAm3wpAFcXiVwGoolj8KgCpeCwC0tVY2FSpggC6UqayApKKu01Ak2+c/8VP/OIIqHYTBLRfNkFVbSqolAZEoIKAJt8KQBXF4lcBqKJY/CoAqXgsAtLVWNhUqYIAulKmsgKSirtNQJNvnP/FT/ziCKh2EwS0XzZBVW0qqJQGRKCCgCbfCkAVxeJXAaiiWPwqAKl4LALS1VjYVKmCALpSprICkoq7TUCTb5z/zY5Q+QAAIABJREFUxU/84giodhMEtF82QVVtKqiUBkSggoAm3wpAFcXiVwGoolj8KgCpeCwC0tVY2FSpggC6UqayApKKu01Ak2+c/8VP/OIIqHYTBLRfNkFVbSqolAZEoIKAJt8KQBXF4lcBqKJY/CoAqXgsAtLVWNhUqYIAulKmsgKSirtNQJNvnP/FT/ziCKh2EwS0XzZBVW0qqJQGRKCCgCbfCkAVxeJXAaiiWPwqAKl4LALS1VjYVKmCALpSprICkoq7TUCTb5z/xU/84giodhMEtF82QVVtKqiUBkSggoAm3wpAFcXiVwGoolj8KgCpeCwC0tVY2FSpggC6UqayApKKu01Ak2+c/8VP/OIIqHYTBLRfNkFVbSqolAZEoIKAJt8KQBXF4lcBqKJY/CoAqXgsAtLVWNhUqYIAulKmsgKSirtNQJNvnP/FT/ziCKh2EwS0XzZBVW0qqJQGRKCCgCbfCkAVxeJXAaiiWPwqAKl4LALS1VjYVKmCALpSprICkoq7TUCTb5z/xU/84giodhMEtF82QVVtKqiUBkSggoAm3wpAFcXiVwGoolj8KgCpeCwC0tVY2FSpggC6UqayApKKu01Ak2+c/8VP/OIIqHYTBLRfNkFVbSqolAZEoIKAJt8KQBXF4lcBqKJY/CoAqXgsAtLVWNhUqYIAulKmsgKSirtNQJNvnP/FT/ziCKh2EwS0XzZBVW0qqJQGRKCCgCbfCkAVxeJXAaiiWPwqAKl4LALS1VjYVKmCALpSprICkoq7TUCTb5z/xU/84giodhMEtF82QVVtKqiUBkSggoAm3wpAFcXiVwGoolj8KgCpeCwC0tVY2FSpggC6UqayApKKu01Ak2+c/8VP/OIIqHYTBLRfNkFVbSqolAZEoIKAJt8KQBXF4lcBqKJY/CoAqXgsAtLVWNhUqYIAulKmsgKSirtNQJNvnP/FT/ziCKh2EwS0XzZBVW0qqJQGRKCCgCbfCkAVxeJXAaiiWPwqAKl4LALS1VjYVKmCALpSprICkoq7TUCTb5z/xU/84giodhMEtF82QVVtKqiUBkSggoAm3wpAFcXiVwGoolj8KgCpeCwC0tVY2FSpggC6UqayApKKu01Ak2+c/8VP/OIIqHYTBLRfNkFVbSqolAZEoIKAJt8KQBXF4lcBqKJY/CoAqXgsAtLVWNhUqYIAulKmsgKSirtNQJNvnP/FT/ziCKh2EwS0XzZBVW0qqJQGRKCCgCbfCkAVxeJXAaiiWPwqAKl4LALS1VjYVKmCALpSprICkoq7TUCTb5z/xU/84giodhMEtF82QVVtKqiUBkSggoAm3wpAfcXz5893yy23nFuwYIEvCfz4znrKtdQnEPjVr6EtRaCagHRVzUhbjE4AXSlTOTo31egQAU2+ozn7iy++cEsvvbRbfvnl3UorrcQE41ZccUX/nfWUa6lPQPqrz0pb1icgXdVnpS3rE0BXCirr89KWHSSgyXd0p8+bN88ts8wyPqCcmWT8d9ZrGY2A9DcaL21dj4B0VY+TthqNwMx8v9Rotaa8tcQ/ZeDqbhYB6W8WjlpfyEYuu+yys4JKvitLWQvfrI2kv1k49GVCBKSrCYFUM7MIoCtlKmch0RcRmE1Ak+9sHnW/FbOVZC2VpaxLbvZ20t9sHvo2GQLS1WQ4qpXZBBRUzuahbyKwBAFNvksgqbWimK1UlrIWstKNpL9SLFoZSUC6igSo6qUEFFSWYtFKEfiNgCbf31iM+onsJA/nKEs5Krnftpf+fmOhT5MjIF1NjqVa+o2AgsrfWOiTCJQS0ORbiqXWSrKVG2+8se6lrEWrfCPpr5xL3bWLFi2qu2mntpOuOuXuqQ1WQeXUUKujthLQ5Due59555x239957u/XXX9+/813L6ASkv9GZUUP6G85NuhrOR6XjEVBQOR431eoQAU2+ozk7HMzhRlC5cOFC/x6+K7gcjaf0Nxov6a8eL+mqHidtNRoBdKWnv0djpq07RkCTbz2H9x/M+4PHqvJ6vXRvK+mvns+r9FVVXq+XfLaSrvLxpaWRKKi05A3ZYpKAJt/hbhn1YD3q9sN7z79U+hvu41H1NOr2w3tvb6l01V7fWbZcQaVl78g2EwQ0+Za7IfbgHFu/3Kr81kp/5T6N1U9s/XKr2rNWumqPr9pkqYLKNnlLtiYhoMl3NvZJH4wn3d5sa9v/Tfqb7cNJ62XS7c221u436cqub9psmYLKNntPtk+FgCbfXzE3ffBtuv2piKWBTqQ/6a8BWfl/odpEu2qz2wQUVHbb/xp9DQJdP6hPO9ibdn81JJB0E+nv15+mggO/JoA+mly6or+u66pJDXW5bXSlp7+7rACNvZJAVyff1AfX1P1XCmNKG0h/0wkm+92Zu/66qqt+P+v7ZAkoqJwsT7WWIYGuTb7WDqbW7Jm2xKW/ZjOTVf7MVX9d01WVn1U+GQIKKifDUa1kTKArk6/1g6d1+5raBaS/psiO1m5u+uuKrkbzsraOJaCgMpag6mdPIPfJt20Hy7bZG7uDSH+xBCdbPxf95a6ryXpdrdUloKCyLilt11kCuU6+bT84tt3+ujuU9FeX1HS3a7v+ctXVdFWg3voJKKjsJ6LvItBHILfJt+0Hwz73+KeBeSoYP03j6eD+/pv+Lv01TTiu/bbuT7npKs6Lqj0pAuhKT39PiqbayZJALpPvqAe/Dz74wP3yyy8T8+nXX3+9RFs//PDDxPoYdXxLGGN0RVf1l9odX3zxhTchvPOFz99++22paW3TXy66KnWGViYjoKAyGXp13BYCbZ986x7sfvrpJ/fdd9/1XmuuuaZ74oknXHF9v8/OO+88d9xxx/VWn3/++e7II4/sfQ8fCE432mgj9/HHH4dV7ueff3brrruu23fffXvr+PDuu++6XXfd1f3444/ujTfecBdeeGHvtXDhQr8t7c2dO3dWe6GRuuMN21t/74r+RvXDGWec4c4++2zHyc9BBx3kTj31VK899Hjaaae5cBLz9ttv+/LDDz/cHX/88e6GG25wDz/8sDvssMP8d+qx/sADD3T333+/+/zzz92JJ57oVlllFV9vtdVWc3/5y1/cU0895euQDX/00Uf9tt9///0SZrdFf23X1RLgtcIEAQWVJtwgIywTaOvkW/fgxsGXAO+qq67yl5BnJoXSzwSZr7zySmlZWb3HH3+859rtt9/effbZZ73vl1xyidtss83cGmus4YPXUEAwSZCw8cYbu5NPPtltu+227sYbb3RHH320O/PMM93f//53f1DfY489SoPK0E7d8Yftrb6n1t/8+fN9hm5UPqPwf/31192qq67qTzw4+eh/Ufavf/2rZwLZQoK9RYsW+ZOPK664wgeBt956q7v22mvdCius0NPGJ5984q677jr3z3/+022zzTb+ZOS1115zd955p7vpppu8lqlz3333uWeeecafVJ111ll+/TXXXOP1SfuUE2gSsG644YZuyy239Nv2jOr7MMr4+6pO5WtqXU1lkOpk6gRmjgNLTb3jUTqU+EehpW0nTaBt+hv1YMaBmGwhB8577rlnFj4yQQ888MCsdWQuOaiTLSQzSZaHz7zIXIbvZD0JEAkYyEhyQCY4ICh9+eWX/We24QDP+g8//HBWPw899JDPRN19993uiCOOcK+++qo7/fTT3ZVXXukIVquCytDYqDxCvVHfGcsBBxzgdthhh1mvHXfc0e21115+3KO2yfap9bfccsu5pZde2s2bN69WcDkOb9g9/fTT7tlnny19kSUkOAwLJ0CceHz11Vfu3HPP9dn0rbbaymuQdWuvvbbXXtierCQZSdajRxb0dfPNN3td8k7QiLbR8eabb+4DU7ZHZwSw+IFg9fbbb/cnQ4sXLw7ND30fh8fQBidUmFpXExqGmjFGAF3pnkpjTpE5tgi0ZfId9+BFlpKDJ9khMjUcwEOmiECQy+BkZbbeemv36aef+oN1CCZ32WUXt91227lTTjnFB5Mc6AmqCCzJ6HCAJxPKARyOt912myNI5DMHaDKRXK7kO4Ell7vZ9tBDD/UiuOiii9wtt9ziD+wvvvjiWEFlUNO4fEL9qncCbbKu/YERdsO3mLWtaqtYnlp/CxYscASWyyyzjFt22WUHBpdN8w1MuJwNk3AyhM7QJYEfl6PRMCcxnLxwUsOCBvEB2W4WdMn2XEInK0kGHK1ze8Zjjz3m258zZ46/DePqq6/2esSPjzzyiC+j7kcffeTbqvtnWnzq2pNaV3Xt1HbtIoCuFFS2y2eydsoErE++ZP1in34mECIjQ7bosssuc5deeql77733HJc+uQRIBpMDKQ/WcEBeffXV/SVFLh/y4sDOduE7l6vZJtxDSbAIxy222MIdcsghjnsjOUCTdbzjjjvcCy+84DNAZEsJADbYYAN/oKd8UkFlkE3/wR1+k1gIKgnACUZCUM77Ouus48fOrQPjLBb0t+KKK/oxYEt/cDkJ/Y3ChZOOtdZay9uDxtAkNmAbWW9Oisha8p3sJvdQ8rn4uvfeex0ZZE6o8A/B6M4779zTK1lzLpVzwsMJVajLtg8++KDXLevQ7ahLU/ob1Q7s1yICkyYws6/YFpfEH+d2DtAzjtZ738ElBy6/+93v3B//+EcfqI2rFA6+ZHeee+45HxxyIP7yyy/dMccc4zNCHEhZx0LwxIMLXCZk4Z0Db/F+SdYTPIZLljwkQWaSy8AEqgSdBKccpMkmvfnmm/5et9AmT9k++eSTPriddFDpjXbO84Ib/GJ1QJuMh6Dy+eef9y8CdXiWZSpj+7NQn0viXCZef/31o/UXfFL3nWBwk0026d1SwK0RMOESNwu6I2vM5exvvvnGa3nTTTf125Ox5BI4gSdaJjBFuwSZnASRCSUDT7b9hBNO8MElbZPJJINOH7xov3ifZ13bw3acWE1Kfxb0IBtmn7g0xYPjueVlZtwKKi07KdY2nKxlfALW+cVminjiNUyABEFcVgzfybrxwAzfyWKGJWQew3b971zK5ilaFu49IwDggRsO2GSBaPell17ywSgPW5DhJNgMC4EmgScZUC6Zk0WNvfwd2m4qU0RAfOyxx7r9999/iRf3WoZ7+YIddd9hm3pZaaWVeppInalEG2iJIA/NHHzwwT67zmXs9dZbzz88c8EFF/hbMorcdtttN/+AF4EwgSYnQgSVBJlkKkNQSR00SeDISRD+5J7Mol85SXrrrbd8/WIfdT43pb86fRe3saCroj36XI+Adb/NHAvST1rDcFqHOMx2C2XiF+eFtvDrP1jxvc7Cdu+//74/yBK4cSDl/j8OumTdyMBxAC8+SBN+Zoj2+XkVDuYcmHnggu05UIcsJYEhT9ruueeevcuLPPnNpW0e7CETyUMgXA4PC3bQP4ECwSV1yUbRFvXos+6DOqHNcfmE+sPeL774Yj8G7s0jGCHLxWcyXXzmRSBCEESWbZQltf64p3L55Zdf4rJ3/xia5FvsixMast5oghMgTlrIspPt5iGaP/3pT768GMQT8PPrA+F2DDTKdgSGIfPDiU/xPkl8isaKwSSfudWEy+Ihq160bdjnafEZZkOxLLWuirboc30C1v2Gfbqnsr4/W7mldRFah9o2fuMcvLj8xz2TBI5cwuU7vxdJMMn4yfyULdz/yAGdwC8s3OPGJcUQVNIOgVTxoE6AuPvuu/t74KjLPXK0FRYye+FyOwEpl8n/8Y9/+GLu7/z3v/9dO6gch0ewo+47lzJ5Sp5Ah0CZ2wXgSAaWAJ0gmHsBeY26pNZf009/czLy3//+1/9nJHw16MU2ZBjDQj24ci8veiODidbgxaXpYvDeH1SyLfde8sAZWXOCfgJS2mRhe05oCCI5GSi+WMfJAidQdZZp6K+OHf3bpNZVvz36Xo+Adb9hn4LKer5s7VbWRWgdbFv5jXIwI3Djx585sPL0NgdVHmaYmSD8gyf9DyWEJ2EJANk+/BwLD6SE+9mCb8NBnUCTwJUDOsEh2SQubxPQkp3kXkoum4fL5+EyO7YQpBFAsNAelzFD5in0U3wfZfzFeuN+JojBxvBTM/yAO0+vE1hi97gPBKXWH9nV4n+VqcunLn9ugwg6q3pHW/z0T9iO34vkMxlL9MPnffbZx/sBPXOCwxL0F/RC8MjPZaEzHkjjqXBu8wgnNmQyCVQJOgkuiy9OsDjZKmbWy5jUHX9Z3Wmsg5WW9hGw7jfsU1DZPl2NZLF1EY40mAQbt51f1cGNYCg8pMM7QRBBHpewOeCzsA4OHFw5UFPGgZWMXFjIRM5MKEv8tiUHdZ785uEfMpNcvuTJaDKUZIq41M06HnzgHs/99tvPZzppj4CShYCUA32455OAoCzYqRpvsHfS73fddZcffwg2yMTyn1n4j0AEMONkKbExd/2N6geCR342iGwjD0PxAE44+QgnHSGDTlCIbtAzeuWEhXroFz2GIBMbwm9Z8jnc8sG9m8XfHeVntYLOg5/77U+lv347qr63XVdV48u13LrfsE9BZa7qmxmXdRFax58Lv2EHu3DZL7yHS9dF35CJ5IDMEh7CKZbzOdTvX8/3kAUqKxu0rni5k21C+xz0gy2h7rDxhW2aeic7SdBCwEwAw08yEbiErCX9wo8HQ0ZduqC/UZmUbT+MLXotlgcdlbUT1nG/5aAFv/af0KTU3yA7h63PRVfDxphjmXW/YZ+CyhyVVxiTdREWTDX5MTd+bTv4VYnCwnh4cpisGAuX9/npGTKxMxNs750sF1nbURbpbxRa09/Wgv7GGXVuuhqHQRvrWPfbzJxn+94K6xCtC1P84jyUK7+2HgyDN9tufxhH1bv0V0UoTXnb9ZerrtKoYXq9Wvcb9ilTOT09JOnJugiTQBmh09z5te3g2DZ7R5Ba6abSXymWZCtz0V/uukomkIY7tu437FNQ2bAIUjdvXYSp+VT13xV+1g+W1u2r0tG45dLfuOQmWy83/XVFV5NVQfrWrPsN+xRUptdJoxZYF2Gjg59A413jZ+3gac2eCUhqpCakv3o/4j8S1BE2zlV/XdPVCC43val1v2GfgkrTEoo3zroI40fYbAtd5Zf6YJq6/2ZVVb916W8p/19s0MM0l9z111VdTVNDTfRl3W/Yp6CyCc8batO6CA2hKjWl6/ymfXCddn+lTje0Uvp7xweVcOBfJDYdXHZFf13XlaFdfCRTrPsN+xRUjuTS9m1sXYTWiYrfrx5q+mDbdPvWdTbIPulP+hukjZj10lUMvXR1rfsN+xRUptPHVHq2LsKpQIjoRPxmw5t08Dfp9mZb2/5v0t9sH05aL5Nub7a1dr9JV3Z9M8wy637DPgWVwzyYQZl1EVpHLH7lHoo9GMfWL7cqv7XSX7lPY/UTW7/cqvasla7a46uipdb9hn0KKosey/CzdRFaRy5+wz006sF51O2H955/qfQ33Mej6mnU7Yf33t5S6aqdvrPuN+xTUNlObdW22roIaw8k0YbiVw981cG6qrxeL93bSvqr5/MqfVWV1+sln62kq3b60rrfsE9BZTu1Vdtq6yKsPZBEG4rfaOD7D94LFy6c6tO7o1lrf2vpbzQfSX/1eElX9ThZ28q637BPQaU11UzYHusinPBwJ96c+I2HNBzc119//an8FMx4VtqvJf2N56Ogvz/84Q/SXwlC6aoESgtWWfcb9imobIGQYky0LsKYsU2jrvjFUV60aFFcAx2vLf3FCUD8yvmJSzkX62ut+w37FFRaV1GkfdZFGDm8xquLX+OI1cEQAtLfEDg1isSvHJK4lHOxvta637BPQaV1FUXaZ12EkcNrvLr4NY5YHQwhIP0NgVOjSPzKIYlLORfra637DfsUVFpXUaR91kUYObzGq4tf44jVwRAC0t8QODWKxK8ckriUc7G+1rrfsE9BpXUVRdpnXYSRw2u8uvg1jlgdDCEg/Q2BU6NI/MohiUs5F+trrfsN+xRUWldRpH3WRRg5vMari1/jiNXBEALS3xA4NYrErxySuJRzsb7Wut+wT0GldRVF2mddhJHDa7y6+DWOWB0MISD9DYFTo0j8yiGJSzkX62ut+w37FFRaV1GkfdZFGDm8xquLX+OI1cEQAtLfEDg1isSvHJK4lHOxvta637BPQaV1FUXaZ12EkcNrvLr4NY5YHQwhIP0NgVOjSPzKIYlLORfra637DfsUVFpXUaR91kUYObzGq4tf44jVwRAC0t8QODWKxK8ckriUc7G+1rrfsE9BpXUVRdpnXYSRw2u8uvg1jlgdDCEg/Q2BU6NI/MohiUs5F+trrfsN+xRUWldRpH3WRRg5vMari1/jiNXBEALS3xA4NYrErxySuJRzsb7Wut+wT0GldRVF2mddhJHDa7y6+DWOWB0MISD9DYFTo0j8yiGJSzkX62ut+w37FFRaV1GkfdZFGDm8xquLX+OI1cEQAtLfEDg1isSvHJK4lHOxvta637BPQaV1FUXaZ12EkcNrvLr4NY5YHQwhIP0NgVOjSPzKIYlLORfra637DfsUVFpXUaR91kUYObzGq4tf44jVwRAC0t8QODWKxK8ckriUc7G+1rrfsE9BpXUVRdpnXYSRw2u8uvg1jlgdDCEg/Q2BU6NI/MohiUs5F+trrfsN+xRUWldRpH3WRRg5vMari1/jiNXBEALS3xA4NYrErxySuJRzsb7Wut+wT0GldRVF2mddhJHDa7y6+DWOWB0MISD9DYFTo0j8yiGJSzkX62ut+w37FFRaV1GkfdZFGDm8xquLX+OI1cEQAtLfEDg1isSvHJK4lHOxvta637BPQaV1FUXaZ12EkcNrvLr4NY5YHQwhIP0NgVOjSPzKIYlLORfra637DfsUVFpXUaR91kUYObzGq4tf44jVwRAC0t8QOCoam4B0NTa6pBWt+w37FFQmlUjznVsXYfME4noQvzh+qh1HQPobjd93333nDjjgALfDDjvMeu24445ur732cq+88spoDWa6tXTVTsda9xv2Kahsp7ZqW21dhLUHkmhD8UsEXt16AtLfaEL49ttv3RprrOGeffbZWa8XX3zRrb322u7xxx8frcFMt5au2ulY637DPgWV7dRWbauti7D2QBJtKH6JwKtbT0D6G00IBJVrrrmmmzNnjttoo416r3XWWYeDnXviiSdGazDTraWrdjrWut+wT0FlO7VV22rrIqw9kEQbil8i8OrWE5D+RhPCV1995YPK559/3vEiY/ncc885ZSpnc5SuZvNoyzfrfsM+BZVtUdOYdloX4ZjDmlo18ZsaanVUQkD6K4EyZNUvv/zijj32WLf//vsv8eJey9dff31I7e4USVft9LV1v2Gfgsp2aqu21dZFWHsgiTYUv0Tg1a0nIP3VF8LFF1/s5s2b584880x36qmnuuOPP95/PuGEE/xnvh9++OFu/vz57ueff67fcIZbSlftdKp1v2Gfgsp2aqu21dZFWHsgiTYUv0Tg1a0nIP3VF8LChQvdAw884Pbcc0933nnnuQcffNBfCr/pppv8AzqPPvqoe+ihh/yrfqt5bildtdOv1v2GfQoq26mt2lZbF2HtgSTaUPwSgVe3noD0N5oQyEDyoM7ixYt9xV133dVddNFFjsDymmuucS+//PJoDWa6tXTVTsda9xv2Kahsp7ZqW21dhLUHkmhD8UsEXt16AtLfaEK46667OKi5Rx55xFfcfffd3YknnuguvPBCd/bZZytLOYNTuhpNV1a2tu437FNQaUUtDdlhXYQNDXtizYrfxFCqoTEISH/1oZGdXGWVVdyNN97oVlttNXfppZf636YMWUta+umnnxw/O9T1RbpqpwKs+w37FFS2U1u1rbYuwtoDSbSh+CUCr249AemvvhD4rznnn3++r/Dhhx+6Qw891P9O5cyBzmcw+bz99ts7nhLv8iJdtdP71v02s68tZZqudYim4TnnJ1LrNlq2T/qz7J38bZP+8vdxihFKVymox/dp3W/Yp0xlvJ9Nt2BdhKbhKSi37p7s7dP+m72LkwxQukqCPbpT637DPgWV0W623YB1Edqmp0yvdf/kbp/23zgPi185P3Ep52J9rXW/YZ+CSusqirTPuggjh9d4dfFrHLE6GEJA+hsCp0aR+JVDEpdyLtbXWvcb9imotK6iSPusizByeI1XF7/GEauDIQSkvyFwahSJXzkkcSnnYn2tdb9hn4JK6yqKtM+6CCOH13h18WscsToYQkD6GwKnRpH4lUMSl3Iu1tda9xv2Kai0rqJI+6yLMHJ4jVcXv8YRq4MhBKS/IXBqFIlfOSRxKedifa11v2GfgkrrKpJ9SQlY34mTwlHnjROQ/uIQi185P3Ep52J9rXW/YZ+CSusqGtG+7777zh1wwAFuhx12mPXih4H32msv98orr4zYYrc3t74Td9s7+Y9e+ovzsfiV8xOXci7W11r3G/YpqLSuohHt41+QrbHGGu7ZZ5+d9XrxxRf9vyx7/PHHR2yx25tb34m77Z38Ry/9xflY/Mr5iUs5F+trrfsN+xRUWlfRiPYRVK655ppuzpw5/l+UbbTRRv59nXXWwdnuiSeeGLHFbm9ufSfutnfyH730F+dj8SvnJy7lXKyvte437FNQaV1FI9r31Vdf+aDy+eefd7zIWD733HNOmcoRQc5sbn0nHm9UqtUWAtJfnKfEr5yfuJRzsb7Wut+wT0GldRWNaN8vv/zijj32WLf//vsv8eJey9dff33EFru9ufWduNveyX/00l+cj8WvnJ+4lHOxvta637BPQaV1FY1g38UXX+zmzZvnzjzzTHfqqae6448/3n8+4YQT/Ge+H3744W7+/Pnu559/HqHl7m5qfSfurme6MXLpbzQ/M7ctt9xybsGCBb5i4Md31lOuRf9+tq0aCHq2aj/2Kai06p0x7Fq4cKF74IEH3J577unOO+889+CDD/pL4TfddJPjAZ1HH33UPfTQQ/41RvOdrGJ9J+6kUzo0aOlvNGd/8cUXbumll3bpPU53AAAgAElEQVTLL7+8W2mllTjAuRVXXNF/Zz3lWhRUtlUD1ucD7FNQ2VZ1DbCbDCQP6ixevNhvseuuu7qLLrrIEVhec8017uWXXx5QU6vLCFjficts1rp8CEh/o/uSqzXLLLOMDyhnDnL+O+u1/EpAumqnEqz7bWZ/W8o0XesQrcG76667/GT6yCOPeNN23313d+KJJ7oLL7zQnX322cpSjugw6W9EYNp8ogSkv9Fxko1cdtllZwWVfFeW8jeW0tVvLNr0ybrfsE+ZyjYpqsJWspOrrLKKu/HGG91qq63mLr30Uv/blCFrSfWffvrJ8bNDWuoRsL4T1xuFtmorAelvPM8Vs5VkLZWlnM1RuprNoy3frPsN+xRUtkVNNezkv+acf/75fssPP/zQHXroof43Kmcc3Ttz33777R1PiWupJmB9J64egbZoMwHpbzzvFbOVylIuyVC6WpJJG9ZY9xv2Kahsg5JkYzIC1nfiZGDU8VQISH/jYyY7ycM5ylIuyVC6WpJJG9ZY9xv2Kahsg5JkYzIC1nfiZGDU8VQISH/jYyZbufHGG+teyhKEXdPVokWLSii0b5V1v2Gfgsr26Woki62LcKTBJNhY/BJAV5c9AtJfD8VIH9555x239957u/XXX9+/813LbwS6oqvcdGDdb9inoPK3/SzLT9ZFaB26+Fn3UN72SX+j+TcEEXAjqOS3e3kP3xVc/sozd13lqgPrfsM+BZWjzVmt29q6CK0DFT/rHsrbPumvnn/7g4j+4LGqvF4v+WyVq66q/FxVbt3D1v2GfQoqraso0j7rIowcXuPVxa9xxOpgCAHpbwgc59yoQcKo2w/vvb2luelqVL+Our0VT1v3G/YpqLSilobssC7ChoY9sWbFb2Io1dAYBKS/cmixQUFs/XKr2rM2F13F+jG2/rQ9bt1v2KegctqqmHJ/1kU4ZRwjdyd+IyNThQkSkP5mw5x0EDDp9mZba/db23U1ab9Nur2mPG/db9inoLIp7xtp17oIjWAaaIb4DUSjgikQkP5+hdz0Qb/p9qcglZG6aKuumvZT0+2P5KSSja37DfsUVJY4LqdV1kVonbX4WfdQ3vZ1XX/TPshPu79U6m2brqbtl2n3V1cH1v2GfQoq63qzpdtZF6F1rOJn3UN529dV/aU+qKfuv2lVt0VXqf2Quv9+HVj3G/YpqOz3WmbfrYvQOm7xs+6hvO3rmv6sHcSt2TMptVvXlTXuVuyx7jfsU1A5qb3UaDvWRWgUW88s8euh0IcEBLqiPysH7UEutm7fILsHrbeqK+ucU9tn1W9BZ9inoDLQyPTdugitYxc/6x7K277c9Zf6ID2qetpm76DxWdNV27imstea3/r1hX0KKvupZPbdugit4xY/6x7K275c9ZfqoDwptbTdfiu6ajvHadtvxW+D9iPsU1A5iE4m662L0Dpm8bPuobzty01/0z4IN62Oto4nta7aym2QnqY1ntR+GzT+sB77FFQGGpm+WxehdeziZ91DeduXi/6mcdD96aefBoqBsh9//HFg+bCC77//3n377bfDNhn530UObWwKhal0lVoHZRpAG1X+reuSpseXym91x499Cirr0mrpdtZFaB2r+Fn3UN72tV1/dQ6y3333nTvllFPc4YcfXvq66qqrek4mKDjvvPPciSee6E499VT3wAMP+LKff/7Zrbvuuu6II47obVv8cNZZZ/W2vfbaa5fo56GHHuptHoJI7KK/M844w+27777ul19+caz7+uuvBwaodcbb62gCH959913H2C688MLe65prrnGXXXZZ7zvlL7300qzepq2rOlya1sFXX33lNtxwQ9d/8vHcc8+5Qw45ZBafoDM0Nn/+fHfmmWd6zscff7zXHet5nX322V4TsyqP8T/p++sP+j5tvw2yY9B67FNQOYhOJuuti9A6ZvGz7qG87Wur/uoEEcFzZIlWX311d/3117ubbrqp97rnnnvc6aef7tZcc81eIEBgwLZ33HGH22GHHfwBn3YuueQSt9lmm7nVVlvNPfPMM6Hp3vsFF1zgHn74Yf99yy239EEXbYQ+/vrXv/a23X333TkwDn1tsskmjkB20DLK+Ae1UWf9Bx984E477TQf8DBGghxs//Of/+wILvlO+T/+8Y9ZzY2qKwKrL774YlYbdb6MwqFpHaCdjTbayGuJvtZee233+eef+4C76H/GRfkqq6ziYHrvvfe6ww47zG288cbukUce8d9Zx8nJCius4D755JOBKEYZ/8BGCgWj+q1QdSofZ/abpabS2bidWIc47rimVU/84kiLXxw/1Y4j0Db9jXMQ5WBPoPfNN9/0AjUCNjKXTz75pFtvvfV668O2UN15553dq6++6l+rrrqqzxi9/PLLPrAMB/pXXnllVnB4/vnnu3322cd99tlnPccQIBx99NG973x4//333ccff+y3IytKppKginW8yi6jzmpg5ss4PMraqbOOTOoBBxzgYPHss8+6u+66y2dXy+qOqqvlllvOLb300m7evHm1gstxxh1824QOYNAfVHJyQvD4n//8x2cq0RLB5aeffurXh3K4brPNNj6A3GOPPbzurrvuOq9JtglaK+Mc1o3DI9Qtvo/qt2LdaXzGPmUqp0E6YR/WRZgQTa2uxa8WJm3UEIG26C/moMnBftttt/VZyQ022MAfrJ966im36aab+oCRTGXICobAgwzdGmus4RYuXOiDRrJKXJo87rjj/Hcylm+++abjUjZB4EknneRuvPFG98MPP7jtt9/eB4t8pm2yTf/61796HiTQYP3MAXKJd4I2MlyjLDF86vTz6KOPejt32WUXH1S++OKLPhCCS/+lb9obVVcLFixwBJbLLLOMW3bZZQcGlzHjbFIHt9xyS8+PaAP94GNuEyhmpuFFkIgG0Nfrr7/udQgvMr6wZBtOdtBP3aAy+DCGzzh+C/1O631mn1GmclrAU/Qz6uSRwkbLfYqfZe/kb5t1/ZEZ3Hvvvf0Bm3cOmqMuHMDJVBI48s79lWQhb731VvfGG2/4g38xqNx1113dpZde6vbaay+fmSMbyb2VBI1c0iZA5NIkGcawXHTRRe7xxx/32cztttvOb4/tTz/9tM/qEYCyEIS+9957vRdZK9o5+OCDfQYrlC1atMgHHqH9uu/9QQU2jLuQQWPMBD8EOmQn4USgEzKx8EBDBE/FZRxdrbjiir3ArD+4tK4Dssyvvfaa46QFX3PpGwZz5szx9+Eec8wxHs+OO+7oT0JCUIm2yPhSh+15kbVmGSeoDD4YVwfj+C30OY33GUYKKqcBO1Uf1kWYikvdfsWvLilt1wQB6/pbf/313R//+EefMRx3/IsXL+5d4iYDSJBENokAj0uSZZlK6pAxJKvEvYMffvih+9Of/uSDKgIAggeCLhYuVZNlguXmm2/uM1P0wXcypPQV+iheLuf+O7bpfxGIEMSRJR13oS7cfve73y3Rfn9/w74TPD/xxBM9M0Kgw8NEYSEwJwhnGdbWOGVcEodpG3RQPHnhHlN8yDoufx977LGeD1lsMtusRxNXXnml1xJsuKeSDGXIbPJwD23UufwdfNH/HnTwhz/8obZv+tuw9H1GQwoqLTll0rbgZC3jExC/8dmpZjwB6/qbRIaKS4oEeeGnXcgihUvMZJdCwAfNcF8cAeMJJ5zgs5kh+0QQSCaR7B0PlrDccMMNvYP1xRdf7NfxgA9BKU+LE4SRzSPo7F+415JL42+99ZbPnIYHfbiUet999/VvXuv7uBmqYY0TeIenv3kwh3tQuXc0rHv++eeXqD6OrlZaaaUeyyYylU3qAABBO2Rz0VrI6KJhMpX8AkAIEgkqKccmfEbgOHfuXJ/ZJONN4An3US9/B0eMq4Nx/Bb6nMY79umeymmQTtiHdREmRFOra/GrhUkbNUSgLfrrP0jyve7C/ZNkfQgUyXpxWZunbbnMOCioJDDgafGTTz7Z8dAEGSUCqZtvvtlxCZPL2iwEAwQAlBEMsJCNIsDg/kvWE1y+8MILvow/BJFsA3sylyxk+wg49t9/f//OvXajLDF8qvrhyXcC8fD0N8Fk+JkhAu0QYBfbGVVX3FO5/PLLN3pPZZM6YOycQJBl5iSCvjhZ4TYBAkce1OLEAv2whKASnaBBbsngPlUCz9tvv33WNqNkKmN1MKrfvKFT/IN9CiqnCDxFV9ZFmILJKH2K3yi0tO2kCbRNf+McNAkgechm66239lk2LldzMOeyNEEfl6gJ7ggeWc+TuDyQAhsuR/LQBT8nRN/cO0nWkwCiuBBwhd+iJGDkXkkCCgLF4s8D3Xnnnb7dc88915eFy8jYRBaQzCVPhtddxuFRt+2wHUEltpUtxaxtsXxUXU3j6e8mdUC2lp9ZYtzrrLOODyQJKrndAh/dfffdHg+/WUmAWQwq0QrBJprD/1z+JhAN2c46QeWkdDCq34o+n8Zn7FNQOQ3SCfuwLsKEaGp1LX61MGmjhgi0VX91D6IEiVxCJFPI5WwO5mEhm8T9kQQBXHokYGT78PNDBHpkDB977DF/0CeTRIaO9vitSrKLYSFoLQaVBIbnnHOODzJgzIMsxXswCRgITlm/xRZb+KwW5Ty0QyAasp6h/f73uuPvrzfOd34cntsFCJwZf3iRsSRwKru0P6qumv6dyqZ1cP/99/sTFO69ZUFnMON+Svrm5OHLL7/0GXJ8Tjn+D1lNHoLiRTuc5Bx11FHuwQcf9FoYFlROWgej+m0cPcXUwT4FlTEEW1DXugitIxQ/6x7K276266/qoMqBmZ8OCgFdmTfJUIZ7GwkACJQI+li4F46gj/skCTa59M2T41z25Z7IEBzAMVzi5ulvLmOTCf3oo4/8Qz60GR5moV0CUupwuZSn0Is//E27lJX9yHrVeMvGF7uOTCWBd7jsXQwqJ3X5O9bGKi5N66DMfgJD/Fh8ccLA7Q/oDH3wSwNohRe/b8p7+M9Pe+65p9dlWVBZNd4ye+qsw1bLywxL+0ZahmjdNusiFD/rBGRfSgK57L/DDrJkHKuWEESyHfdIjrJwiZMsVFj4zr8ErFqGbVO0h3aGja+qn9hy7Bxka/iXk/19pNLVME5N66CfQdX3OjojoCyeEA0bX1V/dcpT+a2ObWyDfcpU1qXV0u2si9A6VvGz7qG87ctNf00fdKethraOJ7Wu2sptkL6mNZ7Ufhs0/rAe+xRUBhqZvlsXoXXs4mfdQ3nbl6v+pnUQbkodbbffiq7aznHa9lvx26D9CvsUVA6ik8l66yK0jln8rHsob/ty19+0D8qxammbvYPGa01XbeOayl5rfuvXF/YpqOynktl36yK0jlv8rHsob/u6or9UB+m66rFuX91xhO2s6so659T2WfVbUVcKKgONTN+ti9A6dvGz7qG87eua/lIftPvVZM2efvvG/W5dV9a4W7HHut+wT0HluHtlS+pZF6F1jOJn3UN529dV/aU+iKfuv2lVt0VXqf2Quv9+HVj3G/YpqOz3WmbfrYvQOm7xs+6hvO3ruv6mfVCfdn+p1Ns2XU3bL9Pur64OrPsN+xRU1vVmS7ezLkLrWMXPuofytk/6+9W/TR/km27fmkrbqqum/dR0+7E6sO437FNQGetl4/Wti9A4PnYQ6ybKvowJSH+znTvpg/6k25ttrd1vbdfVpP026faa8rx1v2GfgsqmvG+kXesiNIJpoBniNxCNCqZAQPorhxwbBMTWL7eqPWtz0VWsH2PrT9vj1v2GfQoqp62KKfdnXYRTxjFyd+I3MjJVmCAB6W84zFGDglG3H957e0tz09Wofh11eyuetu437FNQaUUtDdlhXYQNDXtizYrfxFCqoTEISH/1oFUFCVXl9XrJZ6tcdVXl56py6x627jfsU1BpXUWR9lkXYeTwGq8ufo0jVgdDCEh/Q+CUFPUHDQsXLnR77703Bzr/TrkW53nkzCFXHVifD7BPQWXOe5bLf/Jo2n3Wd+Kmx6/20xKQ/sbjH4KKP/zhDwomSxB2RVe56cC637BPQWXJDpfTKusitM5a/Kx7KG/7pL84/4pfOb+uccllvNbHgX0KKsv3uWzWWhehddDiZ91Dedsn/cX5V/zK+XWNSy7jtT4O7FNQWb7PZbPWugitgxY/6x7K2z7pL86/4lfOr2tcchmv9XFgn4LK8n0um7XWRWgdtPhZ91De9kl/cf4Vv3J+XeOSy3itjwP7FFSW73PZrLUuQuugxc+6h/K2T/qL86/4lfPrGpdcxmt9HNinoLJ8n8tmrXURWgctftY9lLd90l+cf8WvnF/XuOQyXuvjwD4FleX7XDZrrYvQOmjxs+6hvO2T/uL8K37l/LrGJZfxWh8H9imoLN/nsllrXYTWQYufdQ/lbZ/0F+df8Svn1zUuuYzX+jiwT0Fl+T6XzVrrIrQOWvyseyhv+6S/OP+KXzm/rnHJZbzWx4F9CirL97ls1loXoXXQ4mfdQ3nbJ/3F+Vf8yvl1jUsu47U+DuxTUFm+z2Wz1roIrYMWP+seyts+6S/Ov+JXzq9rXHIZr/VxYJ+CyvJ9Lpu11kVoHbT4WfdQ3vZJf3H+Fb9yfl3jkst4rY8D+xRUlu9z2ay1LkLroMXPuofytk/6i/Ov+JXz6xqXXMZrfRzYp6CyfJ/LZq11EVoHLX7WPZS3fdJfnH/Fr5xf17jkMl7r48A+BZXl+1w2a62L0Dpo8bPuobztk/7i/Ct+5fy6xiWX8VofB/YpqCzf57JZa12E1kGLn3UP5W2f9BfnX/Er59c1LrmM1/o4sE9BZfk+l81a6yK0Dlr8rHsob/ukvzj/il85v65xyWW81seBfQoqy/e5bNZaF6F10OJn3UN52yf9xflX/Mr5dY1LLuO1Pg7sU1BZvs9ls9a6CK2DFj/rHsrbPukvzr/iV86va1xyGa/1cWCfgsryfS6btdZFaB20+Fn3UN72SX9x/hW/cn5d45LLeK2PA/sUVJbvc9mstS5C66DFz7qH8rZP+ovzr/iV8+sal1zGa30c2Kegsnyfy2atdRFaBy1+1j2Ut33SX5x/xa+cX9e45DJe6+PAPgWV5ftcNmuti9A6aPGz7qG87ZP+4vwrfuX8usYll/FaHwf2Kags3+eyWWtdhNZBi591D+Vtn/QX51/xK+fXNS65jNf6OLBPQWX5PpfNWusitA5a/Kx7KG/7pL84/4pfOb+uccllvNbHgX0KKsv3uWzWWhehddDiZ91Dedsn/cX5V/zK+XWNSy7jtT4O7FNQWb7PZbPWugitgxY/6x7K2z7pL86/4lfOr2tcchmv9XFgn4LK8n0um7XWRWgdtPhZ91De9kl/cf4Vv3J+XeOSy3itjwP7FFSW73PZrLUuQuugxc+6h/K2T/qL86/4lfPrGpdcxmt9HNinoLJ8n8tmrXURWgctftY9lLd90l+cf8WvnF/XuOQyXuvjwD4FleX7XDZrrYvQOmjxs+6hvO2T/uL8K37l/LrGJZfxWh8H9imoLN/nsllrXYTWQYufdQ/lbZ/0F+df8Svn1zUuuYzX+jiwT0Fl+T6XzVrrIrQOWvyseyhv+6S/OP+KXzm/rnHJZbzWx4F9CirL97ls1loXoXXQ4mfdQ3nbJ/3F+Vf8yvl1jUsu47U+DuxTUFm+z2Wz1roIrYMWP+seyts+6S/Ov+JXzq9rXHIZr/VxYJ+CyvJ9Lpu11kVoHbT4WfdQ3vZJf3H+Fb9yfl3jkst4rY8D+xRUlu9z2ay1LkLroMXPuofytk/6i/Ov+JXz6xqXXMZrfRzYp6CyfJ/LZq11EVoHLX7WPZS3fdJfnH/Fr5xf17jkMl7r48A+BZXl+1w2a62L0Dpo8bPuobztk/7i/Ct+5fy6xiWX8VofB/YpqCzf57JZa12E1kGLn3UP5W2f9BfnX/Er59c1LrmM1/o4sE9BZfk+l81a6yK0Dlr8rHsob/ukvzj/il85v65xyWW81seBfQoqy/e5bNZaF6F10OJn3UN52yf9xflX/Mr5dY1LLuO1Pg7sU1BZvs9ls9a6CK2DFj/rHsrbPukvzr/iV86va1xyGa/1cWCfgsryfS6btdZFaB20+Fn3UN72SX9x/hW/cn5d45LLeK2PA/sUVJbvc9mstS5C66DFz7qH8rZP+ovzr/iV8+sal1zGa30c2Kegsnyfy2atdRFaBy1+1j2Ut33SX5x/xa+cX9e45DJe6+PAPgWV5ftcNmuti9A6aPGz7qG87ZP+4vwrfuX8usYll/FaHwf2Kags3+eyWWtdhNZBi591D+Vtn/QX51/xK+fXNS65jNf6OLBPQWX5PpfNWusitA5a/Kx7KG/7pL84/4pfOb+uccllvNbHgX0KKsv3uWzWWhehddDiZ91Dedsn/cX5V/zK+XWNSy7jtT4O7FNQWb7PZbPWugitgxY/6x7K2z7pL86/4lfOr2tcchmv9XFgn4LK8n0um7XWRWgdtPhZ91De9kl/cf4Vv3J+XeOSy3itjwP7FFSW73PZrLUuQuugxc+6h/K2T/qL86/4lfPrGpdcxmt9HNinoLJ8n8tmrXURWgctftY9lLd90l+cf8WvnF/XuOQyXuvjwD4FleX7XDZrrYvQOmjxs+6hvO2T/uL8K37l/LrGJZfxWh8H9imoLN/nsllrXYTWQYufdQ/lbZ/0F+df8Svn1zUuuYzX+jiwT0Fl+T6XzVrrIrQOWvyseyhv+6S/OP+KXzm/rnHJZbzWx4F9CirL97ls1loXoXXQ4mfdQ3nbJ/3F+Vf8yvl1jUsu47U+DuxTUFm+z2Wz1roIrYMWP+seyts+6S/Ov+JXzq9rXHIZr/VxYJ+CyvJ9Lpu11kVoHbT4WfdQ3vZJf3H+Fb9yfl3jkst4rY8D+xRUlu9z2ay1LkLroMXPuofytk/6i/Ov+JXz6xqXXMZrfRzYp6Dy/7d3brGWVGUe1wdvDyRG07zIEw880AkPJiadGBJCYoghHUM6kI7RaDRDK0GiGBWJjIiXmREkyEUHmRbk5gjiBW1HZRREvAEyoFwcRGCEbpGb3O+wJv/i1O7d56yqs/euWuv79lq/Sk6fOqsu6/t+/3+t/e1VtXfHr7liWr2b0Dto+HlXqOz48N8wfeEX51cbl1Ly9Z6H4qOojF9zxbR6N6F30PDzrlDZ8eG/YfrCL86vNi6l5Os9D8VHURm/5opp9W5C76Dh512hsuPDf8P0hV+cX21cSsnXex6Kj6Iyfs0V0+rdhN5Bw8+7QmXHh/+G6Qu/OL/auJSSr/c8FB9FZfyaK6bVuwm9g4afd4XKjg//DdMXfnF+tXEpJV/veSg+isr4NVdMq3cTegcNP+8KlR0f/humL/zi/GrjUkq+3vNQfBSV8WuumFbvJvQOGn7eFSo7Pvw3TF/4xfnVxqWUfL3nofgoKuPXXDGt3k3oHTT8vCtUdnz4b5i+8Ivzq41LKfl6z0PxUVTGr7liWr2b0Dto+HlXqOz48N8wfeEX51cbl1Ly9Z6H4qOojF9zxbR6N6F30PDzrlDZ8eG/YfrCL86vNi6l5Os9D8VHURm/5opp9W5C76Dh512hsuPDf8P0hV+cX21cSsnXex6Kj6Iyfs0V0+rdhN5Bw8+7QmXHh/+G6Qu/OL/auJSSr/c8FB9FZfyaK6bVuwm9g4afd4XKjg//DdMXfnF+tXEpJV/veSg+isr4NVdMq3cTegcNP+8KlR0f/humL/zi/GrjUkq+3vNQfBSV8WuumFbvJvQOGn7eFSo7Pvw3TF/4xfnVxqWUfL3nofgoKuPXXDGt3k3oHTT8vCtUdnz4b5i+8Ivzq41LKfl6z0PxUVTGr7liWr2b0Dto+HlXqOz48N8wfeEX51cbl1Ly9Z6H4qOojF9zxbR6N6F30PDzrlDZ8eG/YfrCL86vNi6l5Os9D8VHURm/5opp9W5C76Dh512hsuPDf8P0hV+cX21cSsnXex6Kj6Iyfs0V0+rdhN5Bw8+7QmXHh/+G6Qu/OL/auJSSr/c8FB9FZfyaK6bVuwm9g4afd4XKjg//DdMXfnF+tXEpJV/veSg+isr4NVdMq3cTegcNP+8KlR0f/humL/zi/GrjUkq+3vNQfBSV8WuumFbvJvQOGn7eFSo7Pvw3TF/4xfnVxqWUfL3nofgoKuPXXDGt3k3oHTT8vCtUdnz4b5i+8Ivzq41LKfl6z0PxUVTGr7liWr2b0Dto+HlXqOz48N8wfeEX51cbl1Ly9Z6H4qOojF9zxbR6N6F30PDzrlDZ8eG/YfrCL86vNi6l5Os9D8VHURm/5opp9W5C76Dh512hsuPDf8P0hV+cX21cSsnXex6Kj6Iyfs0V0+rdhN5Bw8+7QmXHh/+G6Qu/OL/auJSSr/c8FB9FZfyaK6bVuwm9g4afd4XKjg//DdMXfnF+tXEpJV/veSg+isr4NVdMq3cTegcNP+8KlR0f/humL/zi/GrjUkq+3vNQfBSV8WuumFbvJvQOGn7eFSo7Pvw3TF/4xfnVxqWUfL3nofgoKuPXXDGt3k3oHTT8vCtUdnz4b5i+8Ivzq41LKfl6z0PxUVTGr7liWr2b0Dto+HlXqOz48N8wfeEX51cbl1Ly9Z6H4qOojF9zxbR6N6F30PDzrlDZ8eG/YfrCL86vNi6l5Os9D8VHURm/5opp9W5C76Dh512hsuPDf8P0hV+cX21cSsnXex6Kj6Iyfs0V0+rdhN5Bw8+7QmXHh/+G6Qu/OL/auJSSr/c8FB9FZfyaK6bVuwm9g4afd4XKjg//DdMXfnF+tXEpJV/veSg+isr4NVdMq3cTegcNP+8KlR0f/humL/zi/GrjUkq+3vNQfBSV8WuumFbvJvQOGn7eFSo7Pvw3TF/4xfnVxqWUfL3nofgoKuPXXDGt3k3oHTT8vCtUdnz4b5i+8Ivzq41LKfl6z0PxUVTGr7liWr2b0Dto+HlXqOz48N8wfeEX51cbl1Ly9Z6H4qOojF9zxbR6N6F30PDzrlDZ8eG/YfrCL2yMQMkAACAASURBVM6vNi6l5Os9D8VHURm/5opp9W5C76Dh512hsuPDf8P0hV+cX21cSsnXex6Kj6Iyfs0V0+rdhN5Bw8+7QmXHh/+G6Qu/OL/auJSSr/c8FB9FZfyaK6bVuwm9g4afd4XKjg//DdMXfnF+tXEpJV/veSg+isr4NVdMq3cTegcNP+8KlR0f/humL/zi/GrjUkq+3vNQfBSV8WuumFbvJvQOGn7eFSo7Pvw3TF/4xfnVxqWUfL3nofgoKuPXXDGt3k3oHTT8vCtUdnz4b5i+8Ivzq41LKfl6z0PxUVTGr7liWr2b0Dto+HlXqOz48N8wfeEX51cbl1Ly9Z6H4qOojF9zxbR6N6F30PDzrlDZ8eG/YfrCL86vNi6l5Os9D8VHURm/5opp9W5C76Dh512hsuPDf8P0hV+cX21cSsnXex6Kj6Iyfs0V0+rdhN5Bw8+7QmXHh/+G6Qu/OL/auJSSr/c8FB9FZfyaK6bVuwm9g4afd4XKjg//DdNX/E488UR+VjGojUsp15H3PBQfReWwMcv90d5N6B0g/LwrVHZ8+G+YvuJHUbm2qK6RyzAn+Tja+3ig+CgqfXglWRTeTZgs8ZFODL+RQHKahQjgv4WwTQ6C3wTFHitw2QPH0vzhXTfFR1G5NHZaLFDvJlwsq3xHwS8fa3paSwD/rWUyTwv84rTgEufivdW7boqPotK7iwbG592EA9NLfjj8kiOmgx4C+K8Hzgyb4BeHBJc4F++t3nVTfBSV3l00MD7vJhyYXvLD4ZccMR30EMB/PXBm2AS/OCS4xLl4b/Wum+KjqPTuooHxeTfhwPSSHw6/5IjpoIcA/uuBM8Mm+MUhwSXOxXurd90UH0WldxcNjM+7CQeml/xw+CVHTAc9BPBfD5wZNsEvDgkucS7eW73rpvgoKr27aGB83k04ML3kh8MvOWI66CGA/3rgzLAJfnFIcIlz8d7qXTfFR1Hp3UUD4/NuwoHpJT8cfskR00EPAfzXA2eGTfCLQ4JLnIv3Vu+6KT6KSu8uGhifdxMOTC/54fBLjpgOegjgvx44M2yCXxwSXOJcvLd6103xUVR6d9HA+LybcGB6yQ+HX3LEdNBDAP/1wJlhE/zikOAS5+K91btuio+i0ruLBsbn3YQD00t+OPySI6aDHgL4rwfODJvgF4cElzgX763edVN8FJXeXTQwPu8mHJhe8sPhlxwxHfQQwH89cGbYBL84JLjEuXhv9a6b4qOo9O6igfF5N+HA9JIfDr/kiOmghwD+64Ezwyb4xSHBJc7Fe6t33RQfRaV3Fw2Mz7sJB6aX/HD4JUdMBz0E8F8PnBk2wS8OCS5xLt5bveum+CgqvbtoYHzeTTgwveSHwy85YjroIYD/euDMsAl+cUhwiXPx3updN8VHUendRXPGd8opp4TXvva14bTTTmuObE2ov9Wu7SyzE2j5zX4Ee0JgPAL4bxhL+MX5wSXOxXurd90UH0WldxfNGd9jjz0WXvWqV4XXve514Y1vfKMEDm94wxuav9Wu7SyzE/B+Ec+eCXsuIwH8N0w1+MX5wSXOxXurd90UH0WldxctEN9xxx0XXv3qVzcF5YrIzd9qZ5mPgPeLeL5s2HvZCOC/YYrBL84PLnEu3lu966b4KCq9u2iB+DQb+ZrXvGaPolJ/M0s5P0zvF/H8GXHEMhHAf8PUgl+cH1ziXLy3etdN8VFUenfRgvFNz1Zq1pJZysVAer+IF8uKo5aFAP4bphT84vzgEufivdW7boqPotK7ixaMb3q2klnKBSGG0Mz2Ln40R0JgGAHvLyLDskt/NPzijOES5+K91btuio+i0ruLBsSn2Ul9OIdZysUher+IF8+MI5eBAP4bphL84vzgEufivdW7boqPotK7iwbEp9nKLVu28CzlAIbeL+IBqXHoEhDAf8NEgl+cH1ziXLy3etdN8VFUzuCiHTt2NMXZhg0bmtuhK+BYf9lAo3MQZxXD4m69eL+IrfnQf1oC+G8YX/jF+cElzsV7q3fdFB9F5Tou2rZtW9i4cWPYvn172LVr1zp7s3kMAuIs3uIu/paL94vYkg19pyeA/4Yxhl+cH1ziXLy3etdN8VFU9rhIBc3WrVt79mBTagLib1lYer+IU/Pn/LYE8N8w/vCL84NLnIv3Vu+6KT6Kyg4X6darZspY7AlIB6tb4d4vYnt1iCAlAfw3jC784vzgEufivdW7boqPorLDRXqmT7dgWewJSAfpYbF4v4gtmNBnPgL4bxhr+MX5wSXOxXurd90UH0Vlh4v0YRGeoeyAk7lZOkgPi8X7RWzBhD7zEcB/w1jDL84PLnEu3lu966b4KCo7XORdvI6wi2220sOq32KFJLG5COC/uXCt2Rl+a5A0DXCJc/He6l03xUdR2eEi7+J1hF1ss5UeVv0WKySJzUUA/82Fi51nJICvZgTlbDfvuik+isoO03gXryPsYput9LDqt1ghSWwuAvhvLlzNzs8880w4/vjjwz/90z/t8XPkkUeGj3zkI+H222+f/6SFHYGvllNQ77opPorKDm95F68j7GKbrfSw6rdYIUlsLgL4by5czc5PP/102H///cMf/vCHPX5uvfXW8Ja3vCVce+2185+0sCPw1XIK6l03xUdR2eEt7+J1hF1ss5UeVv0WKySJzUUA/82Fq9lZReUBBxwQDjnkkPD2t7998rNp0ya94IXrrrtu/pMWdgS+Wk5Bveum+CgqO7zlXbyOsIttttLDqt9ihSSxuQjgv7lwNTs/8cQTTVF58803B/1oxvKPf/xjYKZyN0t8tZsFa+MRkK8oKjt4ctF1gDFqttLDql8jzHTrjAD+m1+Ql156Kfzbv/1b+OQnP7nmR89a3nnnnfOftLAj8NVyCfq3v/0tfO1rXwvf+MY3Jj+XXXZZ+OY3vzn5W9tvu+0208TkK4rKDgm46DrAGDVb6WHVrxFmunVGAP/NJ8gFF1wQjjvuuHD22WeHM844I5x88snN+pe+9KVmXX+fdNJJ4ZRTTgkvvvjifCcvaG98tVxi3n///eHMM89sCsvzzjsvnHPOOc2jHO95z3uCikv9re2/+MUvTBOTrygqOySwvOieffbZoOeCZl0efvjhoHfnYy6PPfZYc7r2t/7Q+jxxjRmPlR5W/Y7JjnMtLwH8N592119/fbj66qvDhz/84fD1r389XHPNNc2t8B/84AfNB3R++9vfhl/96lfNz3xnLmtvfLW8euq1XjPu++yzT/NoxxVXXDH66/+idOQrisoOejkvukceeSS0PyrazjrrrPCpT30qPPXUU5N2bX/++efXRCuDHXTQQeGqq65as00N99xzTzjhhBOad+d6l/79738//PrXvw6f+cxnmnfu7bt59adzPProo+HUU08Ne++9d3PcvvvuGz7xiU+EG264oTnm2GOPDRqYta+K31xLTj2mc7LqdzoG1uslgP/m114zkPqgTvs/oh111FHh/PPPDyosNavzpz/9af6TFnYEvlpOQfXaK+0++MEPNkWlnhN+97vf3bxeW9/6FlHFRlHZ4a1cF52+M21FiHV/t59a/NCHPrTuvlu3bm1u72gW87vf/W745S9/2ZhP7XfccUf46U9/2gyy6vs73/lOuPLKK8ONN94Y9B1vejZD7RqA9dUc3/rWt5rtKjQ1xf62t70tHHHEEc2+HfhGb86lx+rArfpdHQd/10kA/82vu2ZuxO03v/lNc7DGS71R1vNouk2omcraF3y1PA7QxNHll1/evBbrNVgfPNMbp/3226+ZdFImP/nJTxrP6xlLy0W+oqjsUCDnRafbyir07r777nDvvfeGz3/+8+GjH/1oM8uoNm178MEHJ5FqBlMzmu9///vDt7/97WYGU3/rXcyBBx4YnnzyyaBPQLaLZiU1I6nvaGsfUtfA+sMf/rB5h6PfKipfeOGFZhp9y5YtYa+99mr2P+aYY4JmK8VDbT/+8Y/DYYcdNpkFaPtI/TunHtO5WPU7HQPr9RLAf/Npr9lJvfDqRVjj1sUXX9yMY+2spc6mcc7qMZ75skm3N75KxzbFmTXx004q6fzPPfdcU1Tqtb5d7rrrrsbv7d8Wv+UrisoO8jkvuh/96Efh8MMPn/zvDyrkdJu5/R8hNCt4ySWXNJHqlrMKTxWZmjU8+uijwwMPPND8tLe5tU37qPjUIuOpoPzCF77Q/K2CUwPuV7/61WZWUg+1ayB+6KGHwu9+97umgNR3vOm2kYrWE088sfk6Dr3zFxcdO13kNidN/E9OPaZTsep3OgbW6yWA/+bTXv9rzrnnntscpHFRY5e+q1Icp3/0hnzs59Dni9R2b3xly3+R3v/85z9PPumtGXdNIMnr7SfC9fVZ1svKNfYK6zh6+7cyf85+VfRt3769KRI1oyjDyChaV+Gon507dzac9G5EsalIVCGqgrP9gl+tb968eTKI6qF1PUO5IvTk989//vOgwVdT6PpCYBWqH/jAB5qiUp1oMNZzGl/84heb87fHa189+K4CV2233HJLr3ZjblR/FotVvxa50qc/AvjPnyYlRISvlk/FCy+8sHndbz/9rRqh/Zoh1QD6RgPrRb5iprJDhZwXnR621Se59HUAKtr07kMFomYG9aOCb/VzQHoWU89RxH50G7xdNFv5+OOPh3e84x3N/3nb3gJ/5zvf2dwCap/LUJGpmUp9sEcPAetDPfoaDhWXYqGZTL3rV6GrHz1redNNN7XdJP+dU4/pZKz6nY6B9XoJ4L96tU+ZOb5KSTfNuVVUasIptuhxD4rKGJlIm5X5c/arAlG3lPVBGf3PD5deeml43/ve19xyVsH58Y9/fE1ReeihhzYzldNffqpPOOoWuAo+PTc0veg2uYpNPS+pQlNFq54rUpGpmcq2qNQxmhVV4fiRj3yk+fJgPZM5/UXC+p63v/71r1mfS8qpxzQ3q36nY2C9XgL4b5j28Ivzg0uci+dW1QWafNJMpWYo2x/NWOrbDnRH03qRr5ip7FAh50WnrwLQTKAKNz1Lqe+gUuGmD+voR216nmJ60TNBMpe+6kfFon5+//vfN7em9azF9Bf76tkh7a+ZSC16pvLggw9uCkN9HZEW3Taffk5SXyKsZzuni8k2Pt0Wz/08Uk49GiAr/1j1Ox0D6/USwH/DtIdfnB9c4lw8t2qmUo+gtbe9p4tKbn/PoZyV+XP2e/rppzezk3NgaYpEzTpOG0xT45qpVIHYV1Tq+y5VjOo2uz6Qo1vd+lR3+72TKhhlWBWRKm6nf9Sm2+L66qGcS049pvOy6nc6BtbrJYD/hmkPvzg/uMS5eG7Va27X665euz18o4F8xUxlh4tyXXQygm5X/9///V9HJPFmzTyqiLz22mub5zD1LKY+uX3RRRc1nwrrKyplQB2rqfT77ruv+VS4bqe3X0+gmUw9a6mis3031P7W7KhmVdvvgItHN35rLj1WR27V7+o4+LtOAvhvmO7wi/ODS5wLrcMIyFcUlR0Mc110+hJyPQ+x+hnIjrAmzXomUh+imf4/bTXjqU+ET59PX36u5zVVCOp/y9EsZfvJ8fZ2uE7afpel1lVUav/3vve9k6810tcbvetd72pmSMWGonIiBSsQSEYg1ziULAHjE8MvLgBc4ly8t3rXTfFRVHa4KKd47QxhRyjRZhWL07OR0ztp2/SiYnJ6ary9zT29z+p1fRCna9EXCU//n+Bd+43ZnlOP6bit+p2OgfV6CeC/YdrDL84PLnEu3lu966b4KCo7XORdvI6wi2220sOq32KFJLG5COC/uXCt2Rl+a5A0DXCJc/He6l03xUdR2eEi7+J1hF1ss5UeVv0WKySJzUUA/82Fa83O8FuDpGmAS5yL91bvuik+isoOF3kXryPsYput9LDqt1ghSWwuAvhvLlxrdobfGiRNA1ziXLy3etdN8VFUdrjIu3gdYRfbbKWHVb/FCklicxHAf3PhWrMz/NYgaRrgEufivdW7boqPorLDRd7F6wi72GYrPaz6LVZIEpuLAP6bC9eaneG3BknTAJc4F++t3nVTfBSVHS7yLl5H2MU2W+lh1W+xQpLYXATw31y41uwMvzVImga4xLl4b/Wum+KjqOxwkXfxOsIuttlKD6t+ixWSxOYigP/mwrVmZ/itQdI0wCXOxXurd90UH0Vlh4u8i9cRdrHNVnpY9VuskCQ2FwH8NxeuNTvDbw2SpgEucS7eW73rpvgoKjtctGHDhqAv+WaxJyAdpIfF4v0itmBCn/kI4L9hrOEX5weXOBfvrd51U3wUlR0u2rJlS9i+fXvHVppzEpAO0sNi8X4RWzChz3wE8N8w1vCL84NLnIv3Vu+6KT6Kyg4X7dixI2zcuLFjK805CUgH6WGxeL+ILZjQZz4C+G8Ya/jF+cElzsV7q3fdFB9FZY+Ltm3bFrZu3dqzB5tSExB/6WC1eL+IrbjQbx4C+G8YZ/jF+cElzsV7q3fdFB9F5TouUkGjmTLdguUZy3VgjbRZnMVb3C0LSqXj/SIeCTmncUoA/w0TBn5xfnCJc/He6l03xUdROYOLdOtVz/TpwyIr0Pj9snmScBBn8ba65T1tCe8X8XSsrJdHAP8N0xR+cX5wiXPx3updN8VHUendRcRnSsD7RWwKh86TE8B/wxDDL84PLnEu3lu966b4KCq9u4j4TAl4v4hN4dB5cgL4bxhi+MX5wSXOxXurd90UH0WldxcRnykB7xexKRw6T04A/w1DDL84P7jEuXhv9a6b4qOo9O4i4jMl4P0iNoVD58kJ4L9hiOEX5weXOBfvrd51U3wUld5dRHymBLxfxKZw6Dw5Afw3DDH84vzgEufivdW7boqPotK7i4jPlID3i9gUDp0nJ4D/hiGGX5wfXOJcvLd6103xUVR6dxHxmRLwfhGbwqHz5ATw3zDE8Ivzg0uci/dW77opPopK7y4iPlMC3i9iUzh0npwA/huGGH5xfnCJc/He6l03xUdR6d1FxGdKwPtFbAqHzpMTwH/DEMMvzg8ucS7eW73rpvgoKr27iPhMCXi/iE3h0HlyAvhvGGL4xfnBJc7Fe6t33RQfRaV3FxGfKQHvF7EpHDpPTgD/DUMMvzg/uMS5eG/1rpvio6j07iLiMyXg/SI2hUPnyQngv2GI4RfnB5c4F++t3nVTfBSV3l1EfKYEvF/EpnDoPDkB/DcMMfzi/OAS5+K91btuio+i0ruLiM+UgPeL2BQOnScngP+GIYZfnB9c4ly8t3rXTfFRVHp3EfGZEvB+EZvCofPkBPDfMMTwi/ODS5yL91bvuik+ikrvLiI+UwLeL2JTOHSenAD+G4YYfnF+cIlz8d7qXTfFR1Hp3UXEZ0rA+0VsCofOkxPAf8MQwy/ODy5xLt5bveum+CgqvbuI+EwJeL+ITeHQeXIC+G8YYvjF+cElzsV7q3fdFB9FpXcXEZ8pAe8XsSkcOk9OAP8NQwy/OD+4xLl4b/Wum+KjqPTuIuIzJeD9IjaFQ+fJCeC/YYjhF+cHlzgX763edVN8FJXeXUR8pgS8X8SmcOg8OQH8Nwwx/OL84BLn4r3Vu26Kj6LSu4uIz5SA94vYFA6dJyeA/4Yhhl+cH1ziXLy3etdN8VFUencR8ZkS8H4Rm8Kh8+QE8N8wxPCL84NLnIv3Vu+6KT6KSu8uIj5TAt4vYlM4dJ6cAP4bhhh+cX5wiXPx3updN8VHUendRcRnSsD7RWwKh86TE8B/wxDDL84PLnEu3lu966b4KCq9u4j4TAl4v4hN4dB5cgL4bxhi+MX5wSXOxXurd90UH0WldxcRnykB7xexKRw6T04A/w1DDL84P7jEuXhv9a6b4qOo9O4i4jMl4P0iNoVD58kJ4L9hiOEX5weXOBfvrd51U3wUld5dRHymBLxfxKZw6Dw5Afw3DDH84vzgEufivdW7boqPotK7i4jPlID3i9gUDp0nJ4D/hiGGX5wfXOJcvLd6103xUVR6dxHxmRLwfhGbwqHz5ATw3zDE8Ivzg0uci/dW77opPopK7y4iPlMC3i9iUzh0npwA/huGGH5xfnCJc/He6l03xUdR6d1FxGdKwPtFbAqHzpMTwH/DEMMvzg8ucS7eW73rpvgoKr27iPhMCXi/iE3h0HlyAvhvGGL4xfnBJc7Fe6t33RQfRaV3FxGfKQHvF7EpHDpPTgD/DUMMvzg/uMS5eG/1rpvio6j07iLiMyXg/SI2hUPnyQngv2GI4RfnB5c4F++t3nVTfBSV3l1EfKYEvF/EpnDoPDkB/DcMMfzi/OAS5+K91btuio+i0ruLiM+UgPeL2BQOnScngP+GIYZfnB9c4ly8t3rXTfFRVHp3EfGZEvB+EZvCofPkBPDfMMTwi/ODS5yL91bvuik+ikrvLiI+UwLeL2JTOHSenAD+G4YYfnF+cIlz8d7qXTfFR1Hp3UXEZ0rA+0VsCofOkxPAf8MQwy/ODy5xLt5bveum+CgqvbuI+EwJeL+ITeHQeXIC+G8+xJs3b9aLWjjssMOaA1t++lvr2s4SGhZwWD4CrZ+9Rq74KCq9qkNcLgh4v4hdQCKIZATw33xod+3a1RRM4vbKV76yWW9/q03bWSgql9UD3scDxUdRuazuIu4sBLxfxFkg0IkZAfw3P/pNmzZNCsuVF7nmb7WzvEwAXy2nE7zrtnK9vcI1Xe8QXcMjuMEE8N9ghJxgAAH8Nz+86dnKlRe5pqhklnI3S3y1m8UyrXnXbeV6o6hcJlMRa14C3i/ivDToLTcB/LcY8dWzlcxS7skRX+3JY1n+8q6b4uP297K4iThNCHi/iE2g0Gk2AvhvMdQ7d+7c4xa4/mbZTQBf7WaxTGvedVN8FJXL5ChizU7A+0WcHQgdZiWA/xbH3c5WMku5liG+WstkGVq866b4KCqXwUnEaEbA+0VsBoaOsxDAf4tj1uzkm970psAs5VqG+Gotk2Vo8a6b4qOonMFJO3bsCFu2bAkbNmzY45bKCkDaXjbSaBzEWbzF3XrxcBHjv2agGs1f6123+G/Pqw7/lec/D+Pani7jr1kIeNdtZWzlgzp9Ym7bti1s3LgxbN++ne846wM14jZ9SlO8xV38LRfrixj/5Vcf/+1mjv92s8i1lsN/1uNaLpal9eNdN4rKdRynAXXr1q3r7MXmlATE37KwtLyI8V9KZ812bvzH+DebU9Lslcp/luNaGlJ1nNW7bhSVPT7ULR/NlLHYE5AOVrfCrS5i/GfvuzYC/NeS4LcFgRT+sxrXLPiV1Kd33Sgqe9ymZ/p0C5bFnoB0kB4Wi9VFjP8s1I73if/iXGjNQyCF/6zGtTzEyu3Fu24UlT3e08P6/A8MPYAybpIO0sNisbqI8Z+F2vE+8V+cC615CKTwn9W4lodYub14142issd73sXrCb3ITVZ61NZvkeYZIanafGCV7whSFXmKsfUY+3xFQneYlHfdFB9fKdRhHO/idYRdbLOVHrX1W6yBBiZWmw+s8h0oU7GHj63H2OcrFryzxLzrpvgoKjtM4128jrCLbbbSo7Z+izXQwMRq84FVvgNlKvbwsfUY+3zFgneWmHfdFB9FZYdpvIvXEXaxzVZ61NZvsQYamFhtPrDKd6BMxR4+th5jn69Y8M4S866b4qOo7DCNd/E6wi622UqP2vot1kADE6vNB1b5DpSp2MPH1mPs8xUL3lli3nVTfBSVHabxLl5H2MU2W+lRW7/FGmhgYrX5wCrfgTIVe/jYeox9vmLBO0vMu26Kj6KywzTexesIu9hmKz1q67dYAw1MrDYfWOU7UKZiDx9bj7HPVyx4Z4l5103xUVR2mMa7eB1hF9tspUdt/RZroIGJ1eYDq3wHylTs4WPrMfb5igXvLDHvuik+isoO03gXbzrshx9+OLz00kvTTXOtP/roo+vu/8QTT0z2efbZZyfruVas9Kit30X1fPLJJ8Pzzz8/0+Ha9+mnn55pXy871eYDq3ylt8aXWb3kxR+p4xhbj7HPlzp/zv8yAe+6KT6Kyg635hTviiuuCCeeeGJTGP7qV78Kxx9/fDjllFPCGWecET73uc+Fk046KXzqU58K995775poVUwedNBB4aqrrlqzbZYGHf/2t789PPTQQ5Pdv/zlLzf9tw0qKDdt2hReeOGFoPW3ve1tzXq7PcfvnHpM51Nbv9O5x9b1Yv/Od74z3HbbbZPN8tAhhxwS/ud//mfSNr2iIuGRRx5pflRMnnbaaY2ftd62T79pmT7Wy3ptPrDKV3qfe+65e4w/qz0gr9x3332Tn7///e9BP9Ntjz/++OSwe+65J1x22WXhBz/4QfjOd74TfvjDHzY/bZt+33LLLc3+2veEE05oxtyTTz45fP/73w+//vWvw2c+85mgvzUm67fG40XH3Elgc6yMrcfY55sjFXYdQMC7boqPorJD4JziaaZQheFRRx0Vbr311vDLX/6yGVj33Xff8Itf/CJcc8014ac//WnYuXNnE+2HPvQhCdf7s3Xr1vDiiy82ReD+++8/2XefffYJjz322B5Zv//9729e3NtGFZhvectbwkc/+tHmHM8991w44ogjmqJX6ypCh8yMtv3M87tPD+WjIjzF0tdviv7ac1r12/bf91teVHy/+c1vGi9oXT8HHHDAHj7TDLqWSy+9dNLe7rv695lnntnXpfk2xdu14L8uMou1X3zxxb3X87x+0hv1z372s00xqDfMelOs8e30009v2vTGXW/stciz3/3ud5sx+N3vfnfQOHrHHXc046+KUvlAhemVV14ZbrzxxsUSXOCoPv8tcLomj0WOq/2Y17/+9euOZavHtjH/Vv+el5VcuwdLD8GPfTHNmlPuflUAarDUbOB//dd/hf/4j/8IKgB/9KMfhZ/85Cfh9ttvn4T+1FNPNbcPVQx++9vfbm4Vadbnt7/9bTjwwAODbi9Oz/xooNQ7+QceeCBs3ry5KVL322+/piBQgahc995773DBBRdM+lDx+PWvfz1ccsklYTJwNAAAIABJREFUk4tIs1GasdT+iu2mm26a7J96JaaHXsyPO+648KpXvSq89rWvTRJCrN8kHa06qVW/q8Lo/FOzNJrx0YyQfPHv//7v4Wc/+1n4y1/+Mpkxmn7j8ac//al5wyQf60X82GOPbTytGc+bb745yG+el5ge+C+NYusVlat7nXd/jZmacexaNCup7So877zzzmY3Fabyu8ZJ/VZRqbE61xLz35C+xz7fkFiW6Vi49aslPsxUdjDKZZ4///nPTdH485//vJkV1O1F3f7RLKVuw3zzm99sir92Jk63EnUb/MEHHwya3Tn66KObYlEFY3vbRtu0j4pPFZQHH3xws67CVUWhZjz/93//N/zxj39sbmOqTbOjOqaNR4Om9tcL57XXXtvEo2NuuOGGpnBVkaBtuZZpPdoX89e85jXh1a9+dXjd617X3FJNEct0vynO33VOq3674ulq18y6vCpfvuMd7wi/+93v1uwqH6n4//CHPxw++clPNi/M8qTW1aYZeh3veZnWA/+lVerTn/50+NjHPjZzJxdeeGHvzObqE61XhOpNuQrKL3zhC82heoMuj3/1q18NX/va18LZZ5/deHj6kaHVfYz997T/xjj32OcbI6ZlOAfc+lUSH4rKDka5zKMXYb2w6h2wCkDN2Kiw1O1mPcujRYOZnqtU+1133dXMFGrQO/zww5v9NNuoHx2jmch29vH6669vjv/KV77SvOD/7W9/awrMZ555Jlx33XWTzKdvf6toPOaYY8Jee+3VxKOdFNP07e92fXKCDCvSY/WL+YqBwxvf+MZkEeTyweoErPpdHcfqv/Wmo+WuGcYvfvGLk7/bdv1uH7+Q584555zmmTbdNtSsu/wmj15++eVNu55p0z5333336u7c/K2c8F96OTTGaWzTnRC9KZ5l6Ssq9WZFnm1/9MykClY9t671tl2/pa+eoZz2sdb1hv/II49s3mTrDbjO+YEPfGCP59BniXPIPopjzGXs840Zm+dzwa1fHfGhqOxglNs8GrT0oQUVdOpbz6ep0NS6Cjytn3rqqZNodRtRL9CxH90Gn150G1IDqc511llnNf1ovX0mSC/yq991Kx4VuSoKVDxoZkkv+prd1C123ebUjGiuRfFu2bKludWt9Rp+crGdpx/d8tOjFno2Tc9UatGbFBUD8sjVV1/d3BZUm5b777+/eZRDheMnPvGJRjcVAXo+TbPw//mf/9n81uMe3otK/NdImvSf3//+9+HQQw9tZrb16M8sS19RqWJxeqyYfr58ul3r6luFrB7p0Ky7xtj2Frg+nCbf67EhjdMaH1ePmbPEuug+im/MZezzjRmb53PBrV8d8aGo7GCU0zwq+qYLOxVyeoGd/ln9yW8NvJqp1AvzN77xjebn/PPPb26Ba+Bc/byPzqmctL8WFZ66paNBdPUA2cajwVOfSl8xSnjzm9/c/LR/qxDItajPrpmiN7zhDcnCUL8Wi1W/s+Yqz/33f/93M4OuN0LtbLsKL62/613vap6hbM+nW4qavVReegZTM5X6W7Peem7X+4L/0iukxyTe+ta3Nndodu3aNRmf1uu5r6iMHbve7W8do8eKNEbKzxoj5VMVlSoyNVO5esyM9TNm29jjwdjnGzNXz+eCW7864kNR2cEop3naIk7vfDXD8973vreZnWyLOM1SanZwulBUEXreeec1zzhq8NOP3mnrBVr7aoCeXvS8pWaSdC4VmFo086nBe/UA2cajWSat69OPeqeuRQOrCoLV5282JvxnWo/VxSXPVCYE33FqvTnRh3X0GEXrP72Z0W1sPYOrbyzQc75aNHu5Mtg0Mz2a5ZbX5V+1tzOeHV25aMZ/6WXQM4x6fKcd5/SBGY1zGoP6lnmLyvX2b8e/diZSz1Rq7PzrX//afEuHYlGcue/U9DGYd9u0n+c9tub94davvvhQVHYwym0evTPWjI++A01f5aPirV00yKqQawdbtWuw1btozRjp4XH96AVdxaMGvOmiT5/q1m0b3aLU12i0s5Xt+adnSds2fXhCRa1uQelWpz48pEUD7OpY2mNS/o7p0RaXfPo7Jfm159aLrr7WSs9ETi+6ZahncqcX7atHL/RBMK3/8z//czNTqQ+e6Q3O9PddTh/nbR3/pVVk+/btjR/aNyLqTeOVZi71bQF9i8azvk9zrz523qJSccjXGgM1y64x+sc//nHWD5fF/Lc6r3n+Hvt88/S9zPvCrV898aGo7GCU0zwqAPU9lbodrecY9YKtYlHPnemFW8+d6QV7dVE5PSukmSF96Oeiiy7aY6ZSRaFevPXFwLFFfetdePuuXPu0g7lu+ejDPjq+Hew9FZVtPiou20/Ht21j/c7pg+mYrfqdjqFrXc9G6rv+5At5U97Qc2h6HEKzlrrVLT9NvzHSd7HqO1c1C6/cdKx+6w2PPkE+/WXVXf1atvfpgf8WV0Z3ZvRF4vJDewdl+mzyjZ4v15tcresrflRoamxqf1ovtR9cVLv26frKs/Vuf6+eqdTtbo21+vCQxlHNqOrxI/k819Lnv0ViGPt8i8SwjMfArV818aGo7GCU0zwaxDRotS/CGhQ10H7pS19qiiV98nv17W/toy/n1T5656wfzUJqYNUg3Bageh4odptGn3xcMUAzWOqFsV1UVKqo1YCvYnf6gXkVldPnb49J/TunHtO51NbvdO6xdX37gN786BsB/vGPfzRvgFofyRea3W7/1hsiPULR/q2ZdXlJntSi/8Vk+pnd9n81ifVr3VabD3Ll+73vfa8pAPX8dtei4k1vqvW4hNb1Pzf94Q9/6P3RzKLeoMcWzTh2zX7qGPlbhaqKWI2F7TdtTL/xbr/LMnb+FG1j6zH2+VLk7PGccOtXRXwoKjsYWZonNhiubtPf07e4p9NYve/0tul1DZoazDVwdi1tcTq9fdbzTx8zdN1Kj9r6nUWn9pPds+yrfeSXPo9pH3nR81KbD6zyzeEBFaZ6c9y1yIvtG3zto5lK62VsPcY+nzWfXP3DrZ+0+FBUdjDCPB1gjJqt9KitXyN53Xdbmw+s8nVvBKMAx9Zj7PMZYcneLdz6kYsPRWUHI8zTAcao2UqP2vo1ktd9t7X5wCpf90YwCnBsPcY+nxGW7N3CrR+5+FBUdjDCPB1gjJqt9KitXyN53Xdbmw+s8nVvBKMAx9Zj7PMZYcneLdz6kYsPRWUHI8zTAcao2UqP2vo1ktd9t7X5wCpf90YwCnBsPcY+nxGW7N3CrR+5+FBUdjDCPB1gjJqt9KitXyN53Xdbmw+s8nVvBKMAx9Zj7PMZYcneLdz6kYsPRWUHI8zTAcao2UqP2vo1ktd9t7X5wCpf90YwCnBsPcY+nxGW7N3CrR+5+FBUdjDCPB1gjJqt9KitXyN53Xdbmw+s8nVvBKMAx9Zj7PMZYcneLdz6kYsPRWUHI8zTAcao2UqP2vo1ktd9t7X5wCpf90YwCnBsPcY+nxGW7N3CrR+5+FBUdjDasGFD2LVrV8dWmnMSkA7Sw2KxGkTwn4Xa8T7xX5wLrXkIpPCf1biWh1i6XuDWz5aisoeP/ku57du39+zBplwEpIP0sFisBhH8Z6F2vE/8F+dCax4CKfxnNa7lIZauF7j1s6Wo7OGzY8eOsHHjxp492JSLgHSQHhaL1SCC/yzUjveJ/+JcaM1DIIX/rMa1PMTS9QK3frYUlf18wrZt28LWrVvX2YvNKQmIv3SwWiwHEfxnpfrufvEf499uN+RfS+U/y3EtP8XxeoRbP0uKyn4+zVa9sOudom5B8IzlDMBG2EWcxVvcLQtKpWI9iOC/EQw15ynw325g+G83i1xrOfxnPa7lYjl2P3DrJ0pR2c9nslW3IvWMmz48sQKN3y9/yisJB3EWb6tb3hPhHRSVigX/NZ8oTOK12PWM/6avAPwX80jKthz+U/ws8xOAWz+zlevCt7kQsV9EtqYlgP/S8uXs/QTwXz8fti5GAF/BbTEC/UfJV3ylUD8jtlZOgMG3cgMYp4//jAUotHt8tZiwcOvnJj4Ulf2M2Fo5AQaRyg1gnD7+Mxag0O7x1WLCwq2fm/hQVPYzYmvlBBhEKjeAcfr4z1iAQrvHV4sJC7d+buJDUdnPiK2VE2AQqdwAxunjP2MBCu0eXy0mLNz6uYkPRWU/I7ZWToBBpHIDGKeP/4wFKLR7fLWYsHDr5yY+FJX9jNhaOQEGkcoNYJw+/jMWoNDu8dViwsKtn5v4UFT2M2Jr5QQYRCo3gHH6+M9YgEK7x1eLCQu3fm7iQ1HZz4itlRNgEKncAMbp4z9jAQrtHl8tJizc+rmJD0VlPyO2Vk6AQaRyAxinj/+MBSi0e3y1mLBw6+cmPhSV/YzYWjkBBpHKDWCcPv4zFqDQ7vHVYsLCrZ+b+FBU9jNia+UEGEQqN4Bx+vjPWIBCu8dXiwkLt35u4kNR2c+IrZUTYBCp3ADG6eM/YwEK7R5fLSYs3Pq5iQ9FZT8jtlZOgEGkcgMYp4//jAUotHt8tZiwcOvnJj4Ulf2M2Fo5AQaRyg1gnD7+Mxag0O7x1WLCwq2fm/hQVPYzYmvlBBhEKjeAcfr4z1iAQrvHV4sJC7d+buJDUdnPiK2VE2AQqdwAxunjP2MBCu0eXy0mLNz6uYkPRWU/I7ZWToBBpHIDGKeP/4wFKLR7fLWYsHDr5yY+FJX9jNhaOQEGkcoNYJw+/jMWoNDu8dViwsKtn5v4UFT2M2Jr5QQYRCo3gHH6+M9YgEK7x1eLCQu3fm7iQ1HZz4itlRNgEKncAMbp4z9jAQrtHl8tJizc+rmJD0VlPyO2Vk6AQaRyAxinj/+MBSi0e3y1mLBw6+cmPhSV/YzYWjkBBpHKDWCcPv4zFqDQ7vHVYsLCrZ+b+FBU9jNia+UEGEQqN4Bx+vjPWIBCu8dXiwkLt35u4kNR2c+IrZUTYBCp3ADG6eM/YwEK7R5fLSYs3Pq5iQ9FZT8jtlZOgEGkcgMYp4//jAUotHt8tZiwcOvnJj4Ulf2M2Fo5AQaRyg1gnD7+Mxag0O7x1WLCwq2fm/hQVPYzYmvlBBhEKjeAcfr4z1iAQrvHV4sJC7d+buJDUdnPiK2VE2AQqdwAxunjP2MBCu0eXy0mLNz6uYkPRWU/I7ZWToBBpHIDGKeP/4wFKLR7fLWYsHDr5yY+FJX9jNhaOQEGkcoNYJw+/jMWoNDu8dViwsKtn5v4UFT2M2Jr5QQYRCo3gHH6+M9YgEK7x1eLCQu3fm7iQ1HZz4itlRNgEKncAMbp4z9jAQrtHl8tJizc+rmJD0VlPyO2Vk6AQaRyAxinj/+MBSi0e3y1mLBw6+cmPhSV/YzYWjkBBpHKDWCcPv4zFqDQ7vHVYsLCrZ+b+FBU9jNia+UEGEQqN4Bx+vjPWIBCu8dXiwkLt35u4kNR2c+IrZUTYBCp3ADG6eM/YwEK7R5fLSYs3Pq5iQ9FZT8jtlZOgEGkcgMYp4//jAUotHt8tZiwcOvnJj4Ulf2M2Fo5AQaRyg1gnD7+Mxag0O7x1WLCwq2fm/hQVPYzYmvlBBhEKjeAcfr4z1iAQrvHV4sJC7d+buJDUdnPiK2VE2AQqdwAxunjP2MBCu0eXy0mLNz6uYkPRWU/I7ZWToBBpHIDGKeP/4wFKLR7fLWYsHDr5yY+FJX9jNhaOQEGkcoNYJw+/jMWoNDu8dViwsKtn5v4UFT2M2Jr5QQYRCo3gHH6+M9YgEK7x1eLCQu3fm7iQ1HZz4itlRNgEKncAMbp4z9jAQrtHl8tJizc+rmJD0VlPyO2Vk6AQaRyAxinj/+MBSi0e3y1mLBw6+cmPhSV/YzYWjkBBpHKDWCcPv4zFqDQ7vHVYsLCrZ+b+FBU9jNia+UEGEQqN4Bx+vjPWIBCu8dXiwkLt35u4kNR2c+IrZUTYBCp3ADG6eM/YwEK7R5fLSYs3Pq5iQ9FZT8jtlZOgEGkcgMYp4//jAUotHt8NZuwmzdvVpEUDjvssOaAlpv+1rq2s+wmICYUlbt5sAaBNQTaQWTNBhogkIEA/ssAucIu8NVsou/ataspHsXrla98ZbPe/labtrPsJiAmFJW7ebAGgTUEGHzXIKEhIwH8lxF2RV3hq9nF3rRp06SwXCmamr/VzrIngRU+r9iz1dlfmN+ZIJWFg/8qE9xZuvjPmSCFhIOvZhdyerZS3NofZinXMlxhQ1G5Fg0tEHiZAIMvTrAkgP8s6ZfbN76aT9vVs5XMUsb5UVTGudAKgQkBBt8JClYMCOA/A+gVdImv5hN5586dkxlKsdPfLGsJiA3PVK7lQgsEJgQYfCcoWDEggP8MoFfQJb6aX+R2tpJZym52FJXdbNgCgYYAgy9GsCSA/yzpl9s3vppfW81OvulNb2KWsgcdRWUPHDZBQAQYfPGBJQH8Z0m/3L4tfbVjx46wZcuWsGHDhj1uKa8UJLRNfRhoDCbiLN7innpZiZcP6qQGzfmXl4Dl4Lu81Ih8LAL4byySnGeagJWvtm3bFjZu3Bi2b9/OdzxOC5JwXZ9SF29xF/+UC0VlSrqcuwgCVoNvEfBIYjAB/DcYISeIELDwlQqarVu3RqKhKRcB8U9ZWFJU5lKSfpaWgMXgu7SwCHx0AvhvdKSc0OCxHt161UwZiz0B6ZDqVjhFpb2+ROCcAC/qzgUqPDz8V7jARunl9pWe6dMtWBZ7AtJBeqRYKCpTUOWcRRHIPfgWBY9kBhPAf4MRcoIIgdy+0odF+B9oIkIYNEkH6ZFioahMQZVzFkUg9+BbFDySGUwA/w1GyAkiBHL7Knd/kZRpmiKQSg+dly8/nwLNKgRWE0h18a3uh78hECOA/2JUaBtKILevcvc3lE/px6fSQ+elqCzdPeQ3iECqi29QUBxcDQH8V43UWRPN7avc/WWFuYSdpdJD56WoXEJDEHI+AqkuvnwZ0NMyE8B/y6ye39hz+yp3f37J+4gslR46L0WlD42JwimBVBef03QJyxkB/OdMkELCye2r3P0VIlOyNFLpofNSVCaTjROXQCDVxVcCG3JITwD/pWdcYw+5fZW7vxo1nSfnVHrovBSV8yjBvtURSHXxVQeShBcigP8WwsZB6xDI7avc/a2TfvWbU+mh81JUVm8vAPQRSHXx9fXJNgi0BPBfS4LfYxLI7avc/Y3JqsRzpdJD56WoLNEx5DQagVQX32gBcqKiCeC/ouU1Sy63r3L3Ny/YF154Yc0hanvmmWfWtK9uePbZZ2fab/Vxln+n0kPnpai0VJa+3RNIdfG5T5wAXRDAfy5kKC6I3L7K3d+8gp199tnh9NNP3+OwO+64I/zLv/zLHm2xP84777xw8sknxza5bUulh85LUelWdgLzQCDVxechN2LwTwD/+ddoGSPM7avc/c2jyXPPPRcOOOCAsHPnzvDwww+HE044oSkSjz322HDIIYc06yeddFK44oorwl133aWiad2fvffeuznXPHHk3DeVHitsXpEzl7n7SpX83IFwQJUE8F+VsrtJGv+5kaKoQHL7Knd/84h15ZVXhmOOOSaouNTM5GWXXRYuv/zyZv3www9v1r/1rW+F66+/vjmtis/77ruv+XnooYfC5z//+XD88ceHBx98cNJ+7733hpdeemmeMLLum0oPnZeZyqxS0tmyEUh18S0bB+K1IYD/bLiX3mtuX+Xub1b9nnzyybD//vuHq666Kpx66qnhc5/73OTQW2+9Nfzrv/7r5O92RbOV++67b9hrr73Cm9/85qBZSeWn2U61bdq0Kdx+++3t7i5/p9JD56WodCk5QXkhkOri85IfcfgmgP9867Os0eX2Ve7+ZtXltttum9zK3meffcJTTz0VjjzyyEmb4tbP9O1sFYwqKv/+97+Hf/zjH+HMM89silGta7by4IMPDtdee+2sIZjsl0qPFV7c/jZRlU6XgkCqi28pkidIcwL4z1yCIgPI7avc/c0jmm5TH3XUUeHqq69uDtPs5SOPPLLHz+OPPz45pQrR/fbbL9x9993N7W4VlUcffXSzrtveBx10EEXlhJbDFc9mdIiLkEYmgP9GBsrp5iKA/+bCxc4zEsjtq9z9zYih2e2CCy5oZh71QZxTTjklXHrppWtmKt/3vveFF198sdlft783b94cjjjiiDX7qe3QQw8Nt9xyyzwhZN83lR46L7e/s8tJh8tEINXFt0wMiNWOAP6zY19yz7l9lbu/WbXbtWvXpDD82Mc+FjQLeckllwStP/300+GJJ54I1113XTjwwAMnRWV77gceeKCZsdy6dWv44Ac/2DxTeeedd7abXf9OpYfOS1HpWnqCsyaQ6uKzzov+l4MA/lsOnZYtyty+yt3fPHq0X3yu35ph1PdV6pZ2u2hmUh/CaWcq1X7TTTc1xejNN98cvve974Uzzjgj3H///U3bz372s/ZQt79T6aHzUlS6lZ3APBBIdfF5yI0Y/BPAf/41WsYIc/sqd3+zaqLvpTzttNPCW9/61qYgfM973hPOOuussGXLlnDxxReH888/v/nKIN3uVlGpmc2Pf/zjzb4qLLVceOGFzW1zrd9zzz3Nh3r0VUR/+ctfZg0j+36p9NB5KSqzy0mHy0Qg1cW3TAyI1Y4A/rNjX3LPuX2Vu79ZtVMRqFnJG2+8sbnVreMuuuiipjDU/5RzzjnnNEWlbn9rJvOGG24Ixx13XHj00UcnXZx77rl7fBWR/mtHfTXRNddcM9nH20oqPXReikpvahOPKwKpLj5XSRKMWwL4z600Sx1Ybl/l7m+IOPq/vJ9//vk9TjFdRO6xIYSgT4vr2ctlWlLpofNSVC6TE4g1O4FUF1/2ROhwKQngv6WUzX3QuX2Vuz/3AhgHmEoPnZei0lhcuvdNINXF5ztrovNCAP95UaKsOHL7Knd/Zak1fjap9NB5KSrH14szFkQg1cVXECJSSUgA/yWEW/Gpc/sqd38VSztT6qn00HkpKmeSgJ1qJZDq4quVJ3nPRwD/zceLvWcjkNtXufubjUK9e6XSQ+elqKzXV2Q+A4FUF98MXbMLBDRAQwECoxPI7avc/Y0OrLATptJD56WoLMwspDMugVQX37hRcrZSCeC/UpW1zSu3r3L3Z0vXf++p9NB5KSr960+EhgRSXXyGKdH1EhHAf0sk1hKFmttXuftbIilMQk2lh85LUWkiKZ0uC4FUF9+y5E+ctgTwny3/UnvP7avc/ZWq21h5pdJD56WoHEslzlMkgVQXX5GwSGp0AvhvdKScMAS98GflsGHDhua/OMzaKZ1FCei/mpQeKRaKyhRUOWdRBHIPvkXBI5nBBPDfYIScIEIgt6/0f2lv3749EglNuQlIB+mRYqGoTEGVcxZFIPfgWxQ8khlMAP8NRsgJIgRy+2rHjh1h48aNkUhoyk1AOkiPFAtFZQqqnLMoArkH36LgkcxgAvhvMEJOECFg4att27aFrVu3RqKhKRcB8ZcOqRaKylRkOW8xBCwG32LgkchgAvhvMEJOECFg5SsVNJop0y1YPdvHkp6AOIu3uKcsKJUJRWV6PelhyQlYDb5Ljo3wRyKA/0YCyWn2IGDpK9161TN9+rDIShHC75c/NZ2EgziLd6pb3tPGWtEz76fApgOYZd3S/LPExz5lE8B/ZevrPTv8512h5YwPXy2nbt6jlq/4SiHvKhGfKQEGX1P81XeO/6q3QBIA+CoJ1upPSlFZvQUAsB4BBt/1CLE9JQH8l5JuvefGV/VqnzJzisqUdDl3EQQYfIuQcWmTwH9LK53rwPGVa3mWNjiKyqWVjsBzEWDwzUWafmIE8F+MCm1DCeCroQQ5PkaAojJGhTYITBFg8J2CwWp2AvgvO/IqOsRXVcicPUmKyuzI6XDZCDD4LptiZcWL/8rS00s2+MqLEmXFQVFZlp5kk4AAg28CqJxyZgL4b2ZU7DgHAXw1Byx2nZkAReXMqNixVgIMvrUq7yNv/OdDh9KiwFelKeojH4pKHzoQhWMCDL6OxakgNPxXgcgGKeIrA+gVdElRWYHIpDiMAIPvMH4cPYwA/hvGj6PjBPBVnAutwwhQVA7jx9EVEGDwrUBkxyniP8fiLHFo+GqJxXMcOkWlY3EIzQcBBl8fOtQaBf6rVfm0eeOrtHxrPTtFZa3Kk/fMBBh8Z0bFjgkI4L8EUDllwFeYIAUBisoUVDlnUQQYfIuSc+mSwX9LJ9lSBIyvlkKmpQuSonLpJCPg3AQYfHMTp79pAvhvmgbrYxHAV2OR5DzTBCgqp2mwDoEIAQbfCBSashHAf9lQV9URvqpK7mzJUlRmQ01Hy0qAwXdZlSsjbvxXho7essBX3hQpIx6KyjJ0JIuEBBh8E8Ll1OsSwH/rImKHBQjgqwWgcci6BCgq10XEDrUTYPCt3QG2+eM/W/6l9o6vSlXWNi+KSlv+9L4EBBh8l0CkgkPEfwWLa5gavjKEX3DXFJUFi0tq4xBg8B2HI2dZjAD+W4wbR/UTwFf9fNi6GAGKysW4cVRFBBh8KxLbYar4z6EoBYSErwoQ0WEKFJUORSEkXwQYfH3pUVs0+K82xfPki6/ycK6tF4rK2hQn37kJMPjOjYwDRiSA/0aEyakmBPDVBAUrIxKgqBwRJqcqkwCDb5m6LktW+G9ZlFquOPHVcum1LNFSVC6LUsRpRoDB1ww9HYcQ8B82SEEAX6WgyjkpKvEABNYhwOC7DiA2JyWA/5Lirfbk+Kpa6ZMmTlGZFC8nL4EAg28JKi5vDvhvebXzHDm+8qzO8sZGUbm82hF5JgIMvplA002UAP6LYqFxIAF8NRAgh0cJUFRGsdAIgd0EGHx3s2AtPwH8l595DT3iqxpUzp8jRWV+5vS4ZAQYfJdMsMLCxX+FCeokHXzlRIjCwqCoLExQ0hmfAIPv+Ew54+wE8N/srNhzdgL4anZW7Dk7AYrK2VmxZ6UEGHwrFd5J2vjPiRCFhYGvChPUSToUlU6EIAy/BBh8/WpTQ2T4rwaV8+eIr/Izr6FHisosOZV+AAAAYklEQVQaVCbHQQQYfAfh4+CBBPDfQIAcHiWAr6JYaBxIgKJyIEAOL58Ag2/5GnvOEP95Vmd5Y8NXy6ud58ibovL1r39981+BNX+84hWswwAP4AE8gAfwAB7AA3hgLg+onvx/6VDVJZI8feIAAAAASUVORK5CYII=;" vertex="1" parent="ip4T__bNzBumYeQjsGo0-1">
          <mxGeometry x="110" y="30" width="661" height="791" as="geometry" />
        </mxCell>
        <mxCell id="ip4T__bNzBumYeQjsGo0-4" value="" style="endArrow=classic;html=1;edgeStyle=orthogonalEdgeStyle;exitX=0;exitY=0.5;exitDx=0;exitDy=0;entryX=0;entryY=0.5;entryDx=0;entryDy=0;" edge="1" parent="ip4T__bNzBumYeQjsGo0-1">
          <mxGeometry width="50" height="50" relative="1" as="geometry">
            <mxPoint x="180" y="573.5" as="sourcePoint" />
            <mxPoint x="648" y="761.5" as="targetPoint" />
            <Array as="points">
              <mxPoint x="160" y="574" />
              <mxPoint x="160" y="762" />
            </Array>
          </mxGeometry>
        </mxCell>
        <mxCell id="ip4T__bNzBumYeQjsGo0-9" style="edgeStyle=orthogonalEdgeStyle;rounded=0;orthogonalLoop=1;jettySize=auto;html=1;entryX=0;entryY=0.5;entryDx=0;entryDy=0;exitX=0.5;exitY=1;exitDx=0;exitDy=0;" edge="1" parent="ip4T__bNzBumYeQjsGo0-1">
          <mxGeometry relative="1" as="geometry">
            <mxPoint x="230" y="684" as="sourcePoint" />
            <mxPoint x="648" y="761.5" as="targetPoint" />
            <Array as="points">
              <mxPoint x="230" y="762" />
            </Array>
          </mxGeometry>
        </mxCell>
      </root>
    </mxGraphModel>
  </diagram>
</mxfile>
